<?xml version="1.0" encoding="UTF-8"?>
<!DOCTYPE svg PUBLIC "-//W3C//DTD SVG 1.1//EN" "http://www.w3.org/Graphics/SVG/1.1/DTD/svg11.dtd">
<!-- Creator: CorelDRAW 2019 (64-Bit Evaluation Version) -->
<svg xmlns="http://www.w3.org/2000/svg" xml:space="preserve" width="101.905mm" height="65.9639mm" version="1.1" style="shape-rendering:geometricPrecision; text-rendering:geometricPrecision; image-rendering:optimizeQuality; fill-rule:evenodd; clip-rule:evenodd"
viewBox="0 0 4042.83 2616.95"
 xmlns:xlink="http://www.w3.org/1999/xlink">
 <defs>
  <style type="text/css">
   <![CDATA[
    .fil10 {fill:#FEFEFE;fill-rule:nonzero}
    .fil22 {fill:#F5AA34;fill-rule:nonzero}
    .fil7 {fill:#F1947D;fill-rule:nonzero}
    .fil8 {fill:#ED7663;fill-rule:nonzero}
    .fil16 {fill:#F7F6EE;fill-rule:nonzero}
    .fil12 {fill:#F6E7CA;fill-rule:nonzero}
    .fil2 {fill:#F5FAF9;fill-rule:nonzero}
    .fil13 {fill:#EBD6BF;fill-rule:nonzero}
    .fil11 {fill:#DA4541;fill-rule:nonzero}
    .fil21 {fill:#D94945;fill-rule:nonzero}
    .fil15 {fill:#E4E0D3;fill-rule:nonzero}
    .fil19 {fill:#E3D880;fill-rule:nonzero}
    .fil20 {fill:#D7B695;fill-rule:nonzero}
    .fil4 {fill:#D5E9DB;fill-rule:nonzero}
    .fil14 {fill:#C5BCAB;fill-rule:nonzero}
    .fil1 {fill:#C3E2D9;fill-rule:nonzero}
    .fil18 {fill:#C2A348;fill-rule:nonzero}
    .fil17 {fill:#9D8435;fill-rule:nonzero}
    .fil9 {fill:#52402D;fill-rule:nonzero}
    .fil5 {fill:#3D2D27;fill-rule:nonzero}
    .fil6 {fill:#685966;fill-rule:nonzero}
    .fil3 {fill:#61AE7E;fill-rule:nonzero}
    .fil0 {fill:#3F3F3E;fill-rule:nonzero}
   ]]>
  </style>
 </defs>
 <g id="Layer_x0020_1">
  <metadata id="CorelCorpID_0Corel-Layer"/>
  <g id="_1473224699168">
   <path class="fil0" d="M4042.78 2600.08c-0.48,9.58 -5.07,17.13 -10.25,16.86 -5.19,-0.26 -8.99,-8.22 -8.51,-17.8 0.48,-9.57 5.07,-17.12 10.26,-16.87 5.17,0.28 8.98,8.24 8.5,17.81z"/>
   <path class="fil1" d="M2779.19 0.31c-142.4,3.41 -284.19,34.93 -414.49,92.57 -194.19,85.91 -303.88,282.15 -426.25,446.1 -103.49,138.64 -226.13,274.41 -389.87,330.29 -155.27,52.99 -328.71,27.32 -484.57,78.59 -288.49,94.9 -437.05,447.35 -369.72,743.48 67.33,296.14 304.36,530 572.88,671.91 558.67,295.26 1271.07,237.05 1809.24,-94.09 298.11,-183.43 551.76,-450.75 679.31,-776.69 245.5,-627.39 -74.54,-1356.98 -770.7,-1477.14 -67.93,-11.74 -136.95,-16.66 -205.82,-15.01z"/>
   <polygon class="fil2" points="859.74,2331.36 3739.68,2331.36 3739.68,492.76 859.74,492.76 "/>
   <polygon class="fil3" points="859.74,648.56 3739.68,648.56 3739.68,492.76 859.74,492.76 "/>
   <path class="fil2" d="M3293.52 570.66c0,18.97 -15.38,34.36 -34.37,34.36 -18.98,0 -34.36,-15.39 -34.36,-34.36 0,-18.99 15.38,-34.38 34.36,-34.38 18.99,0 34.37,15.39 34.37,34.38z"/>
   <path class="fil2" d="M3461.07 570.66c0,18.97 -15.39,34.36 -34.38,34.36 -18.97,0 -34.36,-15.39 -34.36,-34.36 0,-18.99 15.39,-34.38 34.36,-34.38 18.99,0 34.38,15.39 34.38,34.38z"/>
   <path class="fil2" d="M3627.82 570.66c0,18.97 -15.39,34.36 -34.36,34.36 -18.99,0 -34.38,-15.39 -34.38,-34.36 0,-18.99 15.39,-34.38 34.38,-34.38 18.97,0 34.36,15.39 34.36,34.38z"/>
   <polygon class="fil4" points="3429.56,2328.81 3548.93,2328.81 3548.93,920.05 3429.56,920.05 "/>
   <polygon class="fil4" points="3071.37,2328.81 3190.74,2328.81 3190.74,1315.9 3071.37,1315.9 "/>
   <polygon class="fil4" points="1820.4,2328.81 1939.77,2328.81 1939.77,1127.18 1820.4,1127.18 "/>
   <polygon class="fil4" points="1021.7,2336.84 1141.1,2336.84 1141.1,1135.19 1021.7,1135.19 "/>
   <polygon class="fil4" points="1433.7,2328.81 1553.07,2328.81 1553.07,789.45 1433.7,789.45 "/>
   <path class="fil5" d="M3003.13 1318.23c-7.25,45.2 -78.69,58.31 -135.62,123.33 -57.06,64.88 71.85,78.55 79.81,129.35 7.95,50.63 -1.53,120.4 -88.74,152.07 -87.05,31.67 -839.36,147.47 -916.67,22.47 -77.29,-125.01 17.86,-213.04 51.63,-240.96 33.76,-28.03 -128.92,-44.78 -128.37,-136.17 0.56,-73.96 154.04,-86.37 131.44,-127.67 -22.47,-41.29 -140.93,-30.14 -131.44,-88.32 9.36,-58.18 195.05,-85.25 198.27,-121.67 1.52,-18.56 -10.47,-82.31 -16.75,-160.59l0 -0.27c-6.01,-75.21 13.1,-190.39 35.28,-264.19 0,-0.14 81.78,-76.94 167.85,-98.57 112.04,-28.19 231.75,-29.17 231.75,-29.17l258.81 170.65 27.2 -75.35 0.29 1.25 0.41 1.67c1.68,7.82 6.29,29.44 11.31,58.33 12.56,74.36 27.76,197.71 2.36,259.79 -37.94,92.5 106.31,108.81 146.36,141.75 40.18,32.92 5.72,90.25 -64.47,134.64 -70.17,44.5 154.61,53.16 139.25,147.62z"/>
   <polygon class="fil6" points="2796.08,1689.91 2612.57,1466.49 2154.54,1433.47 1993.15,2331.36 2730.09,2331.36 "/>
   <path class="fil7" d="M2640.3 1487.47c0,0 -283.1,352.29 -334.03,352.29 -50.91,0 -151.79,-406.29 -151.79,-406.29 0,0 54.27,-4.05 89.57,-45.91 12.13,-14.36 20.65,-38.08 26.65,-65.85 18.83,-87.62 11.99,-215.7 11.99,-215.7l289.52 -50.8c-5.31,0 -47.02,123.63 -41.57,240.68 3.61,82.03 30.53,161.01 109.65,191.57z"/>
   <path class="fil8" d="M2530.64 1295.9c-78.15,22.19 -180.69,42.41 -259.95,25.81 18.83,-87.62 11.99,-215.7 11.99,-215.7l289.52 -50.8c-5.31,0 -47.02,123.63 -41.57,240.68z"/>
   <path class="fil8" d="M2854.18 906.95c6.26,33.15 -31.58,68.12 -84.53,78.09 -52.94,9.99 -100.92,-8.79 -107.17,-41.93 -6.24,-33.14 31.6,-68.11 84.55,-78.09 52.93,-9.99 100.91,8.79 107.15,41.93z"/>
   <path class="fil8" d="M2186.06 941.58c-5.62,33.26 -53.22,52.95 -106.35,43.97 -53.12,-8.98 -91.63,-43.2 -86.01,-76.46 5.62,-33.26 53.22,-52.95 106.35,-43.97 53.12,8.97 91.63,43.2 86.01,76.46z"/>
   <path class="fil7" d="M2753.78 866.71c-12.79,208.04 -157.83,388.69 -348.94,388.69 -181.7,0 -302.8,-219.93 -290.02,-427.97 12.79,-208.02 166.19,-367.87 342.63,-357.02 176.44,10.85 309.11,188.28 296.33,396.3z"/>
   <path class="fil8" d="M2741.09 846.82l-79.29 -82.49c0,0 -222.79,21.83 -328.33,-131.03 0,0 -27.21,103.66 -178.99,180.15l-39.38 56.4c0,0 -61.85,-317.79 155.6,-364.52 217.46,-46.74 455.74,41.86 487.63,182.26 31.9,140.42 -17.24,159.23 -17.24,159.23z"/>
   <path class="fil5" d="M2749.54 910.39l-48.55 -169.81c0,0 -261.9,4.2 -366.66,-184.44 0,0 -96.42,197 -192.82,243.18l-27.9 125.71c-6.15,-2.36 -28.33,-59.72 -38.53,-136.45 -6.27,-47.44 -8.09,-102.41 1.27,-156.4l0.14 -0.55c17.44,-99.77 73.38,-195.89 209.7,-234.26 155.29,-43.81 316.86,-33.07 415.35,51.05 36.71,30.98 64.61,72.28 80.23,124.74l0.28 1.25 0.41 1.67c5.45,18.15 9.22,37.53 11.31,58.33 7.82,74.22 -4.75,165.61 -44.23,275.97z"/>
   <path class="fil9" d="M2701.54 448.43c-109.65,-18.83 -293.68,-30.69 -437.54,58.61 -84.69,52.45 -155.43,139.94 -188.92,281.56 -5.99,25.39 -10.74,52.32 -14.22,81.21 -5.99,-75.21 -6.7,-163.81 15.49,-237.61l0.14 -0.55c17.44,-99.77 73.38,-195.89 209.7,-234.26 155.29,-43.81 316.86,-33.07 415.35,51.05z"/>
   <path class="fil0" d="M2572.21 914.67c0,17.84 -7.23,32.3 -16.15,32.3 -8.91,0 -16.15,-14.46 -16.15,-32.3 0,-17.84 7.23,-32.31 16.15,-32.31 8.93,0 16.15,14.46 16.15,32.31z"/>
   <path class="fil0" d="M2293.59 894.65c0,17.84 -7.23,32.3 -16.16,32.3 -8.93,0 -16.16,-14.46 -16.16,-32.3 0,-17.84 7.23,-32.31 16.16,-32.31 8.93,0 16.16,14.47 16.16,32.31z"/>
   <path class="fil10" d="M2518.1 1042.07c-4.42,1.77 -160.13,22.26 -160.13,22.26 0,0 20.8,82.65 85.7,75.25 64.88,-7.4 74.43,-97.51 74.43,-97.51z"/>
   <path class="fil11" d="M2390.52 893.43c-0.81,13.4 -1.2,26.82 -1.2,40.24 0,22.4 1.12,44.81 3.33,67.11 0.34,3.53 3.49,6.1 7.02,5.76 3.53,-0.36 6.1,-3.5 5.76,-7.02 -2.17,-21.89 -3.25,-43.88 -3.25,-65.84 0,-13.18 0.39,-26.34 1.17,-39.49 0.22,-3.54 -2.49,-6.58 -6.03,-6.78 -3.55,-0.22 -6.58,2.48 -6.78,6.03z"/>
   <path class="fil5" d="M2541.37 788.31c6.22,-2.58 13.01,-3.86 19.88,-3.86 14.45,-0.02 29.08,5.71 38.97,15.8 3.32,3.38 8.74,3.43 12.12,0.1 3.38,-3.31 3.42,-8.74 0.1,-12.12 -13.52,-13.69 -32.34,-20.91 -51.19,-20.92 -8.96,0 -17.99,1.66 -26.44,5.16 -4.37,1.82 -6.44,6.82 -4.63,11.19 1.82,4.38 6.82,6.46 11.19,4.64z"/>
   <path class="fil5" d="M2216.68 791.78c11.47,-10.98 27.79,-17.02 44.04,-17 10.11,0 20.1,2.32 28.84,6.96 4.19,2.23 9.36,0.63 11.59,-3.53 2.22,-4.18 0.63,-9.37 -3.55,-11.6 -11.43,-6.09 -24.18,-8.96 -36.88,-8.96 -20.38,0.02 -40.8,7.38 -55.88,21.74 -3.43,3.26 -3.55,8.69 -0.28,12.11 3.28,3.41 8.69,3.55 12.12,0.28z"/>
   <path class="fil12" d="M2186.57 1419.11c0,0 -95.43,551.93 -127.53,912.2l-2.55 0.05 -559.29 0c35.73,-91.79 291.67,-744.02 377.11,-814.17 8.79,-7.25 18.83,-13.81 29.71,-20.08 102.41,-57.91 282.55,-77.99 282.55,-77.99z"/>
   <path class="fil13" d="M1874.31 1517.18c8.79,-7.25 18.83,-13.81 29.71,-20.08 -25.67,64.45 -53.84,155.27 -64.31,238.44 -13.93,111.75 -48.46,436.93 -65.29,595.82l-277.23 0c35.73,-91.79 291.67,-744.02 377.11,-814.17z"/>
   <path class="fil14" d="M1346.76 1490.57c0,0 -131.09,-231.33 -279.07,-285.72l34.82 151.09 244.25 134.63z"/>
   <path class="fil15" d="M1346.76 1490.57c0,0 -142.85,-224.71 -313.79,-240.87l-74.03 88.79 324.39 257.14 45.14 -29.13 18.29 -75.93z"/>
   <polygon class="fil15" points="1751.87,1255.41 1798.74,1404.61 1775.31,1458.85 1760.45,1371.66 "/>
   <path class="fil16" d="M1328.48 1566.5l18.29 -75.93c0,0 164.75,-203.34 405.11,-235.17l13.18 130.24 -436.57 180.85z"/>
   <path class="fil17" d="M1328.48 1566.5c0,0 -183.24,-242.67 -395.2,-238.44l231.03 625.26c0,0 141.02,8.55 323.79,189.73l-159.63 -576.56z"/>
   <path class="fil18" d="M1488.1 2143.06c-12.7,12.1 -159.63,-576.56 -159.63,-576.56 0,0 154.3,-169.92 470.26,-218.78l127.03 635.19c0,0 -297.61,26.6 -437.67,160.15z"/>
   <path class="fil19" d="M1446.36 1595.63c81.33,-76.24 172.26,-124.29 277.89,-129.14l37.26 168.68c-102.36,12.22 -186.41,68.72 -262.21,131.73l-52.93 -171.27z"/>
   <path class="fil20" d="M1384.07 2331.36c-0.95,-65.88 19.36,-199.53 206.65,-161.38l11.15 90.58 -144.5 70.79 -73.3 0z"/>
   <path class="fil7" d="M1480.16 2331.36l-50.92 -81.4 -12.84 -20.38c-46.18,-57.9 -253.52,-339.32 -232.03,-389.82 21.34,-50.5 144.12,141.76 144.12,141.76 0,0 -76.17,-211.93 -45.21,-229.65 30.99,-17.87 136.05,247.5 136.05,247.5 0,0 -23.17,-210.11 0,-217.24 23.15,-7.11 37.39,39.07 37.39,39.07 0,0 11.02,-22.04 31.4,-18.97 20.22,2.93 58.59,211.38 58.59,211.38 0,0 38.37,43.8 43.25,131.01 0.56,8.09 0.7,16.61 0.56,25.4l0.13 0c0,0 39.9,106.32 44.78,111.06 2.67,2.75 -40.42,28.36 -78.67,50.28l-76.62 0z"/>
   <path class="fil8" d="M1480.16 2331.36l-50.92 -81.4c69.06,-1.68 128.35,-63.9 160.72,-105.34 0.56,8.09 0.7,16.61 0.56,25.4l0.13 0c0,0 39.9,106.32 44.78,111.06 2.67,2.75 -40.42,28.36 -78.67,50.28l-76.62 0z"/>
   <path class="fil8" d="M1460.07 1816.05c3.34,65.43 10.18,129.76 26.51,193.93 1.39,5.59 -7.25,7.95 -8.65,2.36 -16.88,-65.43 -27.63,-133.94 -25.24,-201.61l7.38 5.32z"/>
   <path class="fil12" d="M1590.72 2164.12c0,0 -43.04,91.18 -148.86,167.24l304.6 0 -155.74 -167.24z"/>
   <path class="fil12" d="M3206.3 2331.36l-314.02 0 -353.12 0c0.81,-95.14 8.45,-693.78 73.37,-864.83 0,0 179.01,86.09 281.96,164.22 31.69,23.87 56.09,47.16 66,66.99 42.14,83.99 245.81,633.62 245.81,633.62z"/>
   <path class="fil13" d="M3206.3 2331.36l-362.52 0c-26.79,-210.4 -22.79,-613.13 11.1,-671.71 11.16,-19.54 24.98,-27.76 39.62,-28.89 31.69,23.87 56.09,47.16 66,66.99 42.14,83.99 245.81,633.62 245.81,633.62z"/>
   <path class="fil20" d="M3376.99 2331.36c3.02,-43.22 0.05,-111.82 -43.93,-140.09 -66.47,-42.74 -93.77,78.35 -93.77,78.35l42.6 61.74 95.1 0z"/>
   <path class="fil21" d="M3270.6 2087.04c2.11,-3.61 25.41,-139.16 93.91,-188.12 68.51,-48.94 155.12,-169.46 172.74,-164.6 17.61,4.88 -80.94,311.66 -80.94,311.66l-185.71 41.06z"/>
   <path class="fil5" d="M3328.91 2028.9c0,0 672.59,-1041.73 693.89,-1036.4 21.3,5.33 -650.49,1061.24 -650.49,1061.24l-43.41 -24.85z"/>
   <path class="fil7" d="M3671.23 1984.72c-11.58,65.3 -312.24,271.1 -312.24,271.1l-5.72 6.43 -61.79 69.11 -23.28 0 -80.27 -149.34 50.09 -62.38 -1.96 -2.23c3.61,-13.54 8.5,-25.39 14.65,-35.85 47.85,-83.16 161.57,-78.28 161.57,-78.28 0,0 -38.24,-151.66 -18,-174.4 13.39,-15.22 34.74,4.46 36.69,6.27 -1.81,-2.5 -23.86,-34.73 4.59,-50.77 26.66,-14.94 95.59,155.98 100.18,167.15 -2.64,-11.58 -45.48,-203.85 -16.18,-247.38 30.42,-44.93 77.01,194.22 77.01,194.22 0,0 11.72,-254.36 42,-268.3 30.42,-14.11 44.37,289.23 32.64,354.66z"/>
   <path class="fil21" d="M3353.26 2262.25l-61.79 69.11 -23.28 0 -80.27 -149.34 50.09 -62.38 -1.96 -2.23c3.61,-13.54 8.5,-25.39 14.65,-35.85 12.18,57.53 40.75,142.3 102.55,180.69z"/>
   <path class="fil21" d="M3429.86 1834.17l0.14 0.14c37.8,53.86 56.36,116.37 74.36,179.99 1.82,6.01 -7.8,8.65 -9.48,2.52 -17.86,-66.27 -37.66,-133.39 -76.6,-190.46l11.58 7.82z"/>
   <path class="fil12" d="M2974.75 2320.99c8.24,-0.22 269.54,-225.91 269.54,-225.91 0,0 13.5,159.07 74.16,236.28l-321.93 0 -21.77 -10.37z"/>
   <polygon class="fil22" points="707.37,1608.35 586.64,1329.11 440.4,1414.57 338.26,1109.86 204.88,1308.58 81.37,984.26 49.34,996.46 196.44,1382.68 327.89,1186.79 421.29,1465.43 570.53,1378.22 675.92,1621.96 "/>
   <path class="fil22" d="M32.63 905.95c-1.44,10.41 -32.63,185.73 -32.63,185.73l190.75 -80.3 -158.12 -105.43z"/>
  </g>
 </g>
</svg>
