<?xml version="1.0" encoding="UTF-8"?>
<!DOCTYPE svg PUBLIC "-//W3C//DTD SVG 1.1//EN" "http://www.w3.org/Graphics/SVG/1.1/DTD/svg11.dtd">
<!-- Creator: CorelDRAW 2019 (64-Bit Evaluation Version) -->
<svg xmlns="http://www.w3.org/2000/svg" xml:space="preserve" width="68.8576mm" height="79.9657mm" version="1.1" style="shape-rendering:geometricPrecision; text-rendering:geometricPrecision; image-rendering:optimizeQuality; fill-rule:evenodd; clip-rule:evenodd"
viewBox="0 0 2149.93 2496.76"
 xmlns:xlink="http://www.w3.org/1999/xlink">
 <defs>
  <style type="text/css">
   <![CDATA[
    .fil12 {fill:#FEFEFE;fill-rule:nonzero}
    .fil14 {fill:#F4AB93;fill-rule:nonzero}
    .fil17 {fill:#F39923;fill-rule:nonzero}
    .fil8 {fill:#F1947D;fill-rule:nonzero}
    .fil7 {fill:#ED7663;fill-rule:nonzero}
    .fil15 {fill:#F5B248;fill-rule:nonzero}
    .fil22 {fill:#EC891C;fill-rule:nonzero}
    .fil13 {fill:#DA4541;fill-rule:nonzero}
    .fil20 {fill:#EBEDC3;fill-rule:nonzero}
    .fil21 {fill:#D78844;fill-rule:nonzero}
    .fil19 {fill:#DAD3A8;fill-rule:nonzero}
    .fil0 {fill:#C3E2D9;fill-rule:nonzero}
    .fil18 {fill:#C4B790;fill-rule:nonzero}
    .fil3 {fill:#AF9E42;fill-rule:nonzero}
    .fil4 {fill:#9D8435;fill-rule:nonzero}
    .fil10 {fill:#674538;fill-rule:nonzero}
    .fil1 {fill:#8CB499;fill-rule:nonzero}
    .fil16 {fill:#8C7F89;fill-rule:nonzero}
    .fil5 {fill:#816D79;fill-rule:nonzero}
    .fil9 {fill:#392927;fill-rule:nonzero}
    .fil2 {fill:#685764;fill-rule:nonzero}
    .fil6 {fill:#574853;fill-rule:nonzero}
    .fil11 {fill:#3F3F3E;fill-rule:nonzero}
   ]]>
  </style>
 </defs>
 <g id="Layer_x0020_1">
  <metadata id="CorelCorpID_0Corel-Layer"/>
  <g id="_1473215972784">
   <path class="fil0" d="M590.71 169.24c-23.65,11.71 -46.35,24.87 -67.83,39.38 -321.89,217.84 -490.83,631.04 -519.24,1006.98 -2.92,38.66 -4.11,77.44 -3.49,116.22 7.16,451.94 276.92,900.17 690.84,1081.72 413.93,181.57 951.01,59.92 1216.5,-305.89 126.96,-174.9 188.41,-414.09 98.18,-610.49 -126.21,-274.61 -460.94,-358.69 -616.97,-608.59 -135.91,-217.71 -21.96,-528.5 -244.16,-700.56 -155.78,-120.63 -385.21,-102.23 -553.83,-18.77z"/>
   <path class="fil1" d="M2128.6 2344.41c0,44.51 -426.02,80.58 -951.52,80.58 -525.5,0 -951.51,-36.07 -951.51,-80.58 0,-44.51 426,-80.58 951.51,-80.58 525.51,0 951.52,36.07 951.52,80.58z"/>
   <polygon class="fil2" points="602.79,2304.29 567.1,2304.29 567.1,1647.11 486.21,1298.63 521.91,1298.63 602.79,1645.3 "/>
   <polygon class="fil2" points="958.1,2286.93 922.41,2286.93 922.41,1641.08 841.52,1298.63 877.22,1298.63 958.1,1639.31 "/>
   <polygon class="fil2" points="841.52,2304.29 877.22,2304.29 877.22,1689.08 841.52,1689.08 "/>
   <polygon class="fil2" points="1267.27,2304.29 1302.98,2304.29 1302.98,1689.08 1267.27,1689.08 "/>
   <path class="fil3" d="M788.18 1392.69l-318.65 0c-56.64,0 -113.66,-47.53 -127.3,-105.73l-76.42 -326.38c-12.91,-55.1 20.91,-99.42 75.42,-99.42l306.71 0c54.52,0 110.71,44.32 125.64,99.42l88.48 326.38c15.78,58.2 -17.25,105.73 -73.89,105.73z"/>
   <path class="fil4" d="M793.36 1392.69l-297.43 0c-52.86,0 -106.1,-47.53 -118.82,-105.73l-71.33 -326.38c-12.04,-55.1 19.52,-99.42 70.41,-99.42l286.27 0c50.89,0 103.34,44.32 117.29,99.42l82.57 326.38c14.73,58.2 -16.08,105.73 -68.96,105.73z"/>
   <path class="fil3" d="M1353.84 1712.11l-778.04 0c-25.17,0 -45.57,-20.41 -45.57,-45.57 0,-25.17 20.41,-45.58 45.57,-45.58l778.04 0c25.17,0 45.57,20.41 45.57,45.58 0,25.17 -20.41,45.57 -45.57,45.57z"/>
   <path class="fil4" d="M1353.84 1712.11l-714.21 0c-25.17,0 -45.57,-20.41 -45.57,-45.57 0,-25.17 20.41,-45.58 45.57,-45.58l714.21 0c25.17,0 45.57,20.41 45.57,45.58 0,25.17 -20.41,45.57 -45.57,45.57z"/>
   <path class="fil2" d="M627.99 655.79c0,0 -145.52,-71.31 -162.25,75.43 -11.59,101.57 33.72,490.2 100,509.05 66.29,18.87 99.4,-163.12 99.4,-163.12l-37.16 -421.36z"/>
   <path class="fil5" d="M679.11 1033.16c0,0 -133.57,-68.06 -192.89,46.53 -4.64,43.59 14.88,102.33 46.61,123.49 0,0 99.89,-55.37 139.13,-55.37l7.15 -114.65z"/>
   <path class="fil6" d="M941.79 782.01l13.23 -113.93c0,0 54.36,-20.56 94.04,11.76 39.67,32.33 157.22,333.26 157.22,333.26l-139.57 138.4 -124.92 -369.49z"/>
   <path class="fil5" d="M1014.62 1108.13c-0.83,-5.13 62.34,-178.5 215.15,-147.65 152.82,30.86 95.52,106.82 95.52,106.82l-251.27 135.88 -59.4 -95.05z"/>
   <path class="fil2" d="M692.89 664.39c0,0 -111.89,-25.69 -166.92,9.17 -24.76,15.68 41.75,152.81 77.58,306.77 43.77,188.15 61.81,397.9 61.81,397.9l464.07 -70.01c0,0 -102.51,-380.04 -106.27,-518.07 -3.75,-138.02 -35.92,-130.98 -124.2,-110.09 -88.28,20.91 -206.06,-15.66 -206.06,-15.66z"/>
   <path class="fil7" d="M684.4 655.27c0,0 72.55,193.42 153.33,173.57 80.78,-19.86 89.71,-196.7 89.71,-196.7l-243.05 23.13z"/>
   <path class="fil7" d="M1039.59 536.14c11.56,22.06 -6.42,54.26 -40.15,71.93 -33.74,17.67 -70.44,14.11 -82,-7.95 -11.56,-22.06 6.43,-54.26 40.16,-71.93 33.74,-17.67 70.44,-14.11 81.99,7.95z"/>
   <path class="fil8" d="M981.21 546.46c7.8,124.96 -55.38,229.19 -152.76,235.26 -97.38,6.1 -192.09,-88.28 -199.89,-213.25 -7.82,-124.98 65.8,-222.12 162.18,-237.29 191.12,-30.06 182.65,90.3 190.47,215.27z"/>
   <path class="fil9" d="M1020.47 437.41c-13.73,11.96 -24.48,20.31 -24.48,20.31l-14.18 107.05c-4.78,-49.27 -9.55,-97.65 -21.06,-120.18 0,0 -238.57,13.88 -258.88,15.66 0,0 -10.3,84.35 -38.21,124.22l-46.44 0c0,0 -43.29,-126.76 -33.44,-191.11 9.85,-64.34 47.93,-134.05 66.44,-126.46 18.66,7.61 9.85,51.22 9.85,51.22 0,0 24.79,-20.76 58.97,-46.73l0.3 -0.15c63.16,-47.78 157.96,-113.32 186.62,-99.14 42.7,21.04 -2.82,85.99 -5.81,90.32 6.11,-2.24 134.51,-50.45 154.82,-17.32 20.61,33.75 -67.62,117.81 -67.62,117.81 0,0 80.61,-18.52 90.47,2.09 6.41,13.58 -30.91,49.42 -57.33,72.4z"/>
   <path class="fil10" d="M1020.47 437.41c8.97,-17.6 17.32,-38.36 14.63,-50 -5.07,-23.15 -93.16,5.08 -93.16,5.08 0,0 88.08,-99.29 74.35,-123.19 -13.6,-24.03 -155.72,29.13 -155.72,29.13 0,0 33.43,-66.74 7.76,-82.27 -16.58,-10 -95.56,27.62 -149,55.1 63.16,-47.78 157.96,-113.32 186.62,-99.14 42.7,21.04 -2.82,85.99 -5.81,90.32 6.11,-2.24 134.51,-50.45 154.82,-17.32 20.61,33.75 -67.62,117.81 -67.62,117.81 0,0 80.61,-18.52 90.47,2.09 6.41,13.58 -30.91,49.42 -57.33,72.4z"/>
   <path class="fil8" d="M683 610.33c-7.47,23.75 -42.98,33.72 -79.3,22.3 -36.32,-11.44 -59.7,-39.97 -52.22,-63.71 7.47,-23.75 42.97,-33.74 79.3,-22.3 36.32,11.44 59.7,39.97 52.22,63.71z"/>
   <path class="fil11" d="M780.03 632.14c0,9.18 -3.15,16.63 -7.04,16.63 -3.91,0 -7.07,-7.45 -7.07,-16.63 0,-9.19 3.16,-16.64 7.07,-16.64 3.89,0 7.04,7.45 7.04,16.64z"/>
   <path class="fil11" d="M934.5 619.3c0,9.2 -3.16,16.64 -7.05,16.64 -3.91,0 -7.06,-7.43 -7.06,-16.64 0,-9.18 3.16,-16.64 7.06,-16.64 3.89,0 7.05,7.45 7.05,16.64z"/>
   <path class="fil12" d="M881.15 696.7c0,0 -64.75,14.49 -101.12,-18 0,0 -6.43,39.26 37.11,46.91 43.64,7.68 64.01,-28.91 64.01,-28.91z"/>
   <path class="fil9" d="M914.59 537.11c4.49,-2.71 9.84,-4.06 15.26,-4.06 8.47,-0.02 16.99,3.34 22.56,9.25 2.37,2.5 6.33,2.62 8.85,0.23 2.5,-2.37 2.62,-6.33 0.23,-8.85 -8.3,-8.71 -19.99,-13.14 -31.64,-13.16 -7.5,0 -15.05,1.85 -21.7,5.83 -2.97,1.78 -3.94,5.63 -2.15,8.6 1.77,2.95 5.61,3.92 8.59,2.15z"/>
   <path class="fil9" d="M789.68 534.74c-6.75,-3.14 -14.06,-4.61 -21.34,-4.61 -14.7,0.02 -29.43,5.96 -39.46,17.19 -2.31,2.59 -2.09,6.55 0.5,8.83 2.59,2.31 6.55,2.08 8.85,-0.5 7.32,-8.27 18.79,-13.01 30.11,-12.99 5.6,0 11.11,1.14 16.07,3.44 3.12,1.47 6.86,0.1 8.32,-3.04 1.45,-3.13 0.1,-6.85 -3.04,-8.32z"/>
   <path class="fil13" d="M876.3 623.41c2.33,11.01 3.37,17.97 3.37,25.57 0,5.38 -0.53,11.21 -1.62,19.04 -0.47,3.43 1.92,6.6 5.34,7.07 3.43,0.48 6.6,-1.92 7.07,-5.35 1.11,-8.1 1.74,-14.55 1.74,-20.76 0,-8.82 -1.26,-16.92 -3.66,-28.19 -0.72,-3.38 -4.04,-5.53 -7.43,-4.81 -3.38,0.72 -5.53,4.04 -4.81,7.43z"/>
   <path class="fil14" d="M668.47 810.3c-1.89,-4.59 -41.37,-70.38 -45.48,-131.8 -4.11,-61.44 16.11,-116.67 31.87,-109.79 15.73,6.88 -0.37,96.06 -0.37,96.06 0,0 15.38,-96.92 35.94,-90.63 20.56,6.28 -4.48,116.15 -4.48,116.15 0,0 22.17,-80.83 37.23,-77.8 15.06,3.01 -8.27,113.08 -8.27,113.08 0,0 9.75,-68.07 28.76,-66.69 19.01,1.39 -6.3,86.11 -6.3,86.11 0,0 47.83,47.68 19.66,105.61l-88.56 -40.3z"/>
   <path class="fil14" d="M668.47 810.3c0,0 -148.35,319.62 -137.7,384.45 5.9,35.95 42.96,54.84 73.62,56.26 30.68,1.41 73.23,-13.23 92.22,-100.29 23.33,-107.03 60.43,-300.13 60.43,-300.13l-88.56 -40.3z"/>
   <polygon class="fil15" points="1353.55,1594.46 936.14,1620.95 1274.24,1409.84 "/>
   <path class="fil8" d="M1760.41 1766.79c1.07,9.43 89.48,126.96 89.48,126.96l-96.59 76.34 -89.5 -108.62 96.62 -94.67z"/>
   <path class="fil2" d="M1797.09 2069.32c-4.8,-1.6 -9.34,-5.15 -13.5,-10.02 -23.6,-27.36 -35.97,-96.13 -35.97,-96.13l93.59 -81.17c0,0 120.93,-45.99 172.1,-42.6 7.06,0.35 12.76,1.85 16.75,4.46 31.73,21.53 -200.63,236.43 -232.97,225.46z"/>
   <path class="fil16" d="M1797.09 2069.32c-4.8,-1.6 -9.34,-5.15 -13.5,-10.02 40.46,-27.72 162.76,-116.59 229.72,-219.9 7.06,0.35 12.76,1.85 16.75,4.46 31.73,21.53 -200.63,236.43 -232.97,225.46z"/>
   <path class="fil16" d="M1855.11 1930.32l-0.2 0.05c-3.88,0.97 -7.83,-1.29 -8.97,-5.15l-0.87 -2.97 -0.25 -3.01c-2.3,-14.68 -1.67,-29.9 1.87,-44.32 0.97,-4.02 5.06,-6.48 9.02,-5.48 4.01,0.97 6.46,5.03 5.48,9.02 -3.46,14.08 -3.71,28.98 -0.77,43.14 0.8,3.86 -1.54,7.67 -5.31,8.72z"/>
   <path class="fil16" d="M1885.48 1918.53c-3.92,1.09 -8,-1.15 -9.17,-5.06l-0.01 -0.1c-4.51,-15.68 -4.24,-32.9 0.76,-48.45 1.26,-3.94 5.45,-6.09 9.4,-4.81 3.92,1.27 6.08,5.46 4.81,9.39 -4.11,12.78 -4.32,26.89 -0.63,39.78 1.14,3.94 -1.14,8.07 -5.07,9.22l-0.09 0.03z"/>
   <path class="fil16" d="M1912.54 1906.17l-1.3 0.23c-4.09,0.42 -7.75,-2.59 -8.15,-6.69 -1.37,-13.86 -0.6,-27.83 2.27,-41.5 0.84,-4.04 4.83,-6.67 8.84,-5.76 4.03,0.83 6.61,4.79 5.76,8.83 -2.55,12.19 -3.22,24.62 -2.02,36.98 0.38,3.66 -1.97,6.97 -5.4,7.92z"/>
   <path class="fil17" d="M665.35 1378.23c0,0 47.37,302.27 257.25,246.44 209.89,-55.85 501.03,-194.45 501.03,-194.45l270.77 543.36 142.93 -135.59c0,0 -248.25,-586.88 -336.24,-611.76 -126.56,-35.78 -371.67,82 -371.67,82l-464.07 70.01z"/>
   <path class="fil8" d="M1664.27 1996.69c-1.5,9.39 52.05,146.35 52.05,146.35l-113.56 47.55 -57 -128.66 118.51 -65.23z"/>
   <path class="fil2" d="M1618.26 2297.95c-4.17,-2.84 -7.62,-7.47 -10.31,-13.28 -15.36,-32.7 -8.8,-102.28 -8.8,-102.28l111.98 -53.01c0,0 128.83,-11.79 177.21,5.23 6.71,2.24 11.79,5.23 14.93,8.82 24.78,29.26 -256.79,173.77 -285.01,154.52z"/>
   <path class="fil16" d="M1618.26 2297.95c-4.17,-2.84 -7.62,-7.47 -10.31,-13.28 46.45,-15.83 188.12,-68.54 280.39,-150.06 6.71,2.24 11.79,5.23 14.93,8.82 24.78,29.26 -256.79,173.77 -285.01,154.52z"/>
   <path class="fil16" d="M1711.51 2179.66l-0.2 0c-3.99,-0.1 -7.2,-3.36 -7.27,-7.37l-0.03 -3.11 0.57 -2.96c1.74,-14.75 6.43,-29.24 13.71,-42.19 2.02,-3.62 6.61,-4.87 10.18,-2.85 3.59,2.02 4.86,6.58 2.84,10.17 -7.1,12.63 -11.36,26.91 -12.34,41.34 -0.25,3.92 -3.53,6.97 -7.45,6.97z"/>
   <path class="fil16" d="M1743.95 2176.47c-4.08,0 -7.4,-3.26 -7.47,-7.33l0 -0.1c-0.11,-16.32 4.76,-32.82 13.78,-46.46 2.25,-3.46 6.88,-4.41 10.33,-2.1 3.44,2.27 4.39,6.9 2.11,10.34 -7.38,11.19 -11.39,24.73 -11.29,38.13 0.02,4.12 -3.27,7.47 -7.38,7.53l-0.08 0z"/>
   <path class="fil16" d="M1773.32 2171.85l-1.32 -0.12c-4.04,-0.72 -6.77,-4.58 -6.04,-8.65 2.4,-13.72 6.9,-26.96 13.34,-39.37 1.89,-3.67 6.45,-5.11 10.05,-3.18 3.66,1.91 5.1,6.39 3.17,10.05 -5.73,11.06 -9.72,22.85 -11.87,35.09 -0.63,3.61 -3.77,6.17 -7.33,6.17z"/>
   <path class="fil15" d="M1211.61 1523.17l72.23 71.75 274.69 577.86 157.78 -74.4c0,0 -189.49,-711.72 -305.05,-687.93 -115.59,23.8 -199.66,112.73 -199.66,112.73z"/>
   <polygon class="fil18" points="743.47,1251.1 1533.4,1251.1 1533.4,1227.17 743.47,1227.17 "/>
   <polygon class="fil19" points="743.47,1251.1 1047.69,1251.1 1047.69,1227.17 743.47,1227.17 "/>
   <path class="fil18" d="M1026.99 1239.36c0,3.41 -2.75,6.18 -6.18,6.18 -3.4,0 -6.18,-2.77 -6.18,-6.18 0,-3.43 2.78,-6.18 6.18,-6.18 3.43,0 6.18,2.75 6.18,6.18z"/>
   <polygon class="fil18" points="955.83,1243.72 1001.38,1243.72 1001.38,1235.97 955.83,1235.97 "/>
   <polygon class="fil18" points="877.03,1243 922.59,1243 922.59,1235.25 877.03,1235.25 "/>
   <polygon class="fil18" points="763.7,1243 809.28,1243 809.28,1235.25 763.7,1235.25 "/>
   <polygon class="fil20" points="1576.9,1231.03 1042.42,1230.39 1159.44,850.42 1694.96,850.13 "/>
   <polygon class="fil19" points="1576.9,1231.03 1056.84,1230.41 1170.08,862.81 1691.12,862.56 "/>
   <path class="fil6" d="M1042.42 2342.57l0 0c-10.64,0 -19.27,-8.63 -19.27,-19.27l0 -1020.4c0,-10.64 8.64,-19.27 19.27,-19.27 10.64,0 19.27,8.64 19.27,19.27l0 1020.4c0,10.64 -8.63,19.27 -19.27,19.27z"/>
   <path class="fil6" d="M466.94 2342.57l0 0c-10.63,0 -19.27,-8.63 -19.27,-19.27l0 -1020.4c0,-10.64 8.64,-19.27 19.27,-19.27 10.66,0 19.27,8.64 19.27,19.27l0 1020.4c0,10.64 -8.62,19.27 -19.27,19.27z"/>
   <path class="fil6" d="M1789.37 2342.57l0 0c-10.64,0 -19.27,-8.63 -19.27,-19.27l0 -1020.4c0,-10.64 8.63,-19.27 19.27,-19.27 10.64,0 19.27,8.64 19.27,19.27l0 1020.4c0,10.64 -8.64,19.27 -19.27,19.27z"/>
   <polygon class="fil21" points="363.13,1316.25 1852.44,1316.25 1852.44,1251.02 363.13,1251.02 "/>
   <g>
    <path class="fil15" d="M2088.41 401.47c1.02,199.02 -159.46,361.4 -358.48,362.42 -199.17,1.17 -361.4,-159.31 -362.57,-358.48 -1.04,-199.02 159.44,-361.25 358.48,-362.42 43.22,-0.3 84.54,7.15 122.95,20.88l-120.91 339.64 358.2 -40.88c1.47,12.71 2.19,25.7 2.34,38.85z"/>
    <path class="fil22" d="M2149.93 298.78l-358.2 40.88 120.91 -339.66c127.18,45.13 221.65,160.04 237.28,298.78z"/>
   </g>
  </g>
 </g>
</svg>
