<?xml version="1.0" encoding="UTF-8"?>
<!DOCTYPE svg PUBLIC "-//W3C//DTD SVG 1.1//EN" "http://www.w3.org/Graphics/SVG/1.1/DTD/svg11.dtd">
<!-- Creator: CorelDRAW 2019 (64-Bit Evaluation Version) -->
<svg xmlns="http://www.w3.org/2000/svg" xml:space="preserve" width="115.03mm" height="106.529mm" version="1.1" style="shape-rendering:geometricPrecision; text-rendering:geometricPrecision; image-rendering:optimizeQuality; fill-rule:evenodd; clip-rule:evenodd"
viewBox="0 0 41920.91 38822.92"
 xmlns:xlink="http://www.w3.org/1999/xlink">
 <defs>
  <style type="text/css">
   <![CDATA[
    .fil21 {fill:none;fill-rule:nonzero}
    .fil1 {fill:#FEFEFE;fill-rule:nonzero}
    .fil14 {fill:#F7C0A7;fill-rule:nonzero}
    .fil4 {fill:#F7B534;fill-rule:nonzero}
    .fil15 {fill:#F5B497;fill-rule:nonzero}
    .fil9 {fill:#F5A709;fill-rule:nonzero}
    .fil16 {fill:#F09277;fill-rule:nonzero}
    .fil3 {fill:#EE7E47;fill-rule:nonzero}
    .fil11 {fill:#E54D27;fill-rule:nonzero}
    .fil6 {fill:#F2F2F3;fill-rule:nonzero}
    .fil2 {fill:#F0F6F4;fill-rule:nonzero}
    .fil18 {fill:#F0F4F5;fill-rule:nonzero}
    .fil17 {fill:#E8F0ED;fill-rule:nonzero}
    .fil13 {fill:#D4362B;fill-rule:nonzero}
    .fil7 {fill:#E5EBEA;fill-rule:nonzero}
    .fil0 {fill:#E4EDEA;fill-rule:nonzero}
    .fil8 {fill:#E2ECE8;fill-rule:nonzero}
    .fil19 {fill:#DBE6E2;fill-rule:nonzero}
    .fil22 {fill:#D5E3DE;fill-rule:nonzero}
    .fil20 {fill:#73282D;fill-rule:nonzero}
    .fil5 {fill:#A3C094;fill-rule:nonzero}
    .fil10 {fill:#521F25;fill-rule:nonzero}
    .fil12 {fill:#1E1B1E;fill-rule:nonzero}
   ]]>
  </style>
 </defs>
 <g id="Layer_x0020_1">
  <metadata id="CorelCorpID_0Corel-Layer"/>
  <g id="_1473220450976">
   <path class="fil0" d="M13607.26 34120.75l26618.08 0c671.36,0 1215.57,-544.18 1215.57,-1215.5l0 -20567.68c0,-671.33 -544.21,-1215.57 -1215.57,-1215.57l-84.59 0 0 20319.8c0,695.71 -563.85,1259.6 -1259.53,1259.63l-26489.54 0 0 203.83c0,671.33 544.25,1215.5 1215.57,1215.5z"/>
   <path class="fil1" d="M12263.18 9658.49l26618.04 0c671.33,0 1215.61,544.28 1215.61,1215.65l0 20567.65c0,671.36 -544.28,1215.65 -1215.61,1215.65l-26618.04 0c-671.36,0 -1215.61,-544.28 -1215.61,-1215.65l0 -20567.65c0,-671.36 544.25,-1215.65 1215.61,-1215.65z"/>
   <path class="fil2" d="M12263.18 9658.49l0 -43.88 26618.04 0c695.67,0 1259.53,563.89 1259.53,1259.53l0 20567.65c0,695.71 -563.85,1259.6 -1259.53,1259.63l-26618.04 0c-695.63,-0.04 -1259.6,-563.93 -1259.6,-1259.63l0 -20567.65c0,-695.63 563.96,-1259.53 1259.6,-1259.53l0 87.97c-323.66,0 -616.3,131.05 -828.43,343.12 -212.14,212.14 -343.23,504.74 -343.23,828.43l0 20567.65c0,323.66 131.09,616.37 343.23,828.51 212.14,212.07 504.78,343.12 828.43,343.19l26618.04 0c323.66,-0.07 616.26,-131.12 828.43,-343.19 212.14,-212.14 343.15,-504.85 343.15,-828.51l0 -20567.65c0,-323.69 -131.01,-616.3 -343.15,-828.43 -212.17,-212.07 -504.78,-343.12 -828.43,-343.12l-26618.04 0 0 -44.1z"/>
   <polygon class="fil2" points="40052.81,12331.22 15775.9,12331.22 15775.9,11818.06 40052.81,11818.06 "/>
   <polygon class="fil0" points="40052.81,12331.22 40096.84,12331.22 40096.84,11387.33 40096.84,11818.02 40052.81,11818.02 "/>
   <path class="fil1" d="M12263.18 9658.49l26618.04 0c671.33,0 1215.61,544.28 1215.61,1215.65l0 943.89 -29049.26 0 0 -943.89c0,-671.36 544.25,-1215.65 1215.61,-1215.65z"/>
   <path class="fil3" d="M38236.1 10738.31c0,202.84 164.43,367.21 367.28,367.21 202.84,0 367.24,-164.36 367.24,-367.21 0,-202.81 -164.4,-367.21 -367.24,-367.21 -202.84,0 -367.28,164.4 -367.28,367.21z"/>
   <path class="fil4" d="M36772.67 10738.31c0,202.84 164.4,367.21 367.24,367.21 202.77,0 367.21,-164.36 367.21,-367.21 0,-202.81 -164.43,-367.21 -367.21,-367.21 -202.84,0 -367.24,164.4 -367.24,367.21z"/>
   <path class="fil5" d="M35309.21 10738.31c0,202.84 164.43,367.21 367.21,367.21 202.84,0 367.28,-164.36 367.28,-367.21 0,-202.81 -164.43,-367.21 -367.28,-367.21 -202.77,0 -367.21,164.4 -367.21,367.21z"/>
   <path class="fil2" d="M19896.54 13895.78l-5600.57 0c-121.47,0 -219.9,-98.43 -219.9,-219.9 0,-121.47 98.43,-219.86 219.9,-219.86l5600.57 0c121.47,0 219.9,98.4 219.9,219.86 0,121.47 -98.43,219.9 -219.9,219.9z"/>
   <path class="fil2" d="M19896.54 14982.16l-5600.57 0c-121.47,0 -219.9,-98.43 -219.9,-219.9 0,-121.47 98.43,-219.86 219.9,-219.86l5600.57 0c121.47,0 219.9,98.4 219.9,219.86 0,121.47 -98.43,219.9 -219.9,219.9z"/>
   <path class="fil2" d="M19896.54 16068.58l-5600.57 0c-121.47,0 -219.9,-98.43 -219.9,-219.9 0,-121.47 98.43,-219.9 219.9,-219.9l5600.57 0c121.47,0 219.9,98.43 219.9,219.9 0,121.47 -98.43,219.9 -219.9,219.9z"/>
   <path class="fil2" d="M19896.54 17154.85l-5600.57 0c-121.47,0 -219.9,-98.4 -219.9,-219.86 0,-121.36 98.43,-219.86 219.9,-219.86l5600.57 0c121.47,0 219.9,98.51 219.9,219.86 0,121.47 -98.43,219.86 -219.9,219.86z"/>
   <path class="fil2" d="M19896.54 18241.27l-5600.57 0c-121.47,0 -219.9,-98.4 -219.9,-219.86 0,-121.39 98.43,-219.9 219.9,-219.9l5600.57 0c121.47,0 219.9,98.51 219.9,219.9 0,121.47 -98.43,219.86 -219.9,219.86z"/>
   <path class="fil2" d="M37926.22 20414.15l-23630.25 0c-121.47,0 -219.9,-98.51 -219.9,-219.86 0,-121.47 98.43,-219.9 219.9,-219.9l23630.25 0c121.47,0 219.86,98.43 219.86,219.9 0,121.36 -98.4,219.86 -219.86,219.86z"/>
   <path class="fil2" d="M37926.22 21500.49l-23630.25 0c-121.47,0 -219.9,-98.43 -219.9,-219.9 0,-121.43 98.43,-219.86 219.9,-219.86l23630.25 0c121.47,0 219.86,98.43 219.86,219.86 0,121.47 -98.4,219.9 -219.86,219.9z"/>
   <path class="fil2" d="M37926.22 22586.95l-23630.25 0c-121.47,0 -219.9,-98.51 -219.9,-219.86 0,-121.47 98.43,-219.86 219.9,-219.86l23630.25 0c121.47,0 219.86,98.4 219.86,219.86 0,121.36 -98.4,219.86 -219.86,219.86z"/>
   <path class="fil2" d="M37926.22 23673.29l-23630.25 0c-121.47,0 -219.9,-98.43 -219.9,-219.9 0,-121.39 98.43,-219.9 219.9,-219.9l23630.25 0c121.47,0 219.86,98.51 219.86,219.9 0,121.47 -98.4,219.9 -219.86,219.9z"/>
   <path class="fil2" d="M37926.22 24759.79l-23630.25 0c-121.47,0 -219.9,-98.43 -219.9,-219.9 0,-121.47 98.43,-219.86 219.9,-219.86l23630.25 0c121.47,0 219.86,98.4 219.86,219.86 0,121.47 -98.4,219.9 -219.86,219.9z"/>
   <path class="fil2" d="M27916.16 26512.87l-8448.38 0c-121.36,0 -219.86,-98.43 -219.86,-219.9 0,-121.36 98.51,-219.9 219.86,-219.9l8448.38 0c121.47,0 219.9,98.54 219.9,219.9 0,121.47 -98.43,219.9 -219.9,219.9z"/>
   <path class="fil2" d="M27916.16 27599.25l-8448.38 0c-121.36,0 -219.86,-98.4 -219.86,-219.86 0,-121.47 98.51,-219.86 219.86,-219.86l8448.38 0c121.47,0 219.9,98.4 219.9,219.86 0,121.47 -98.43,219.86 -219.9,219.86z"/>
   <path class="fil2" d="M27916.16 28685.74l-8448.38 0c-121.36,0 -219.86,-98.51 -219.86,-219.86 0,-121.47 98.51,-219.9 219.86,-219.9l8448.38 0c121.47,0 219.9,98.43 219.9,219.9 0,121.36 -98.43,219.86 -219.9,219.86z"/>
   <path class="fil2" d="M27916.16 29772.09l-5905.82 0c-121.43,0 -219.86,-98.43 -219.86,-219.9 0,-121.47 98.43,-219.9 219.86,-219.9l5905.82 0c121.47,0 219.9,98.43 219.9,219.9 0,121.47 -98.43,219.9 -219.9,219.9z"/>
   <path class="fil2" d="M27916.16 30858.47l-5905.82 0c-121.43,0 -219.86,-98.51 -219.86,-219.9 0,-121.43 98.43,-219.86 219.86,-219.86l5905.82 0c121.47,0 219.9,98.43 219.9,219.86 0,121.39 -98.43,219.9 -219.9,219.9z"/>
   <path class="fil2" d="M20771.08 15998.97l219.9 0c0.07,762.91 308.53,1451.62 808.46,1951.77 500.19,499.86 1188.86,808.39 1951.77,808.5 762.91,-0.11 1451.51,-308.64 1951.77,-808.5 499.86,-500.15 808.32,-1188.86 808.39,-1951.77 -0.07,-762.91 -308.53,-1451.55 -808.39,-1951.77 -500.26,-499.82 -1188.86,-808.28 -1951.77,-808.35 -762.91,0.07 -1451.58,308.53 -1951.77,808.35 -499.86,500.22 -808.39,1188.86 -808.46,1951.77l-439.76 0c0.07,-1767.33 1432.56,-3199.82 3200,-3199.89 1767.33,0.07 3199.85,1432.56 3199.93,3199.89 -0.07,1767.44 -1432.6,3199.93 -3199.93,3200 -1767.44,-0.07 -3199.93,-1432.56 -3200,-3200l219.86 0z"/>
   <path class="fil2" d="M23971.07 13018.95l0 2980.03c0,61.23 -25.66,119.97 -70.7,161.48l-2188.03 2022.43c-89.18,82.47 -228.32,76.93 -310.72,-12.25 -82.4,-89.18 -76.97,-228.25 12.25,-310.64l2117.44 -1957.16 0 -2883.89c0,-121.47 98.43,-219.86 219.9,-219.86 121.39,0 219.86,98.4 219.86,219.86z"/>
   <path class="fil2" d="M32073.35 28568.5l219.9 0c0.07,762.91 308.53,1451.51 808.39,1951.81 500.19,499.82 1188.86,808.28 1951.77,808.35 762.91,-0.07 1451.58,-308.53 1951.77,-808.46 499.82,-500.19 808.35,-1188.79 808.46,-1951.7 -0.15,-762.91 -308.64,-1451.58 -808.46,-1951.77 -500.19,-499.93 -1188.86,-808.39 -1951.77,-808.46 -762.91,0.07 -1451.58,308.53 -1951.77,808.46 -499.86,500.19 -808.32,1188.79 -808.39,1951.77l-439.76 0c0.07,-1767.4 1432.49,-3199.93 3199.93,-3200 1767.4,0.07 3199.89,1432.6 3200,3200 -0.11,1767.37 -1432.6,3199.85 -3200,3199.93 -1767.44,-0.07 -3199.85,-1432.56 -3199.93,-3199.93l219.86 0z"/>
   <path class="fil2" d="M35273.31 25588.37l0 2980.14c0,61.23 -25.73,119.9 -70.63,161.41l-2188.11 2022.47c-89.18,82.44 -228.36,76.9 -310.75,-12.21 -82.4,-89.18 -76.97,-228.32 12.21,-310.75l2117.48 -1957.13 0 -2883.92c0,-121.47 98.43,-219.86 219.9,-219.86 121.43,0 219.9,98.4 219.9,219.86z"/>
   <path class="fil2" d="M13239.91 30743.85l0 -219.86 5151.59 0 0 -4326.98 -4931.72 0 0 4546.84 -219.86 0 0 -219.86 0 219.86 -219.9 0 0 -4766.71c0,-57.98 23.47,-114.61 64.4,-155.5 41,-41 97.52,-64.4 155.5,-64.4l5371.49 0c57.87,0 114.51,23.4 155.5,64.4 40.89,40.89 64.36,97.52 64.36,155.5l0 4766.71c0,57.87 -23.47,114.51 -64.36,155.5 -41,40.93 -97.63,64.4 -155.5,64.4l-5371.49 0c-57.98,0 -114.51,-23.47 -155.5,-64.4 -40.93,-41 -64.4,-97.63 -64.4,-155.5l219.9 0z"/>
   <path class="fil2" d="M38032.02 13615.64l153.39 157.51 -4507.85 4389.41 4134.56 0 0 -4546.92 219.9 0 153.39 157.51 -153.39 -157.51 219.86 0 0 4766.82c0,57.87 -23.47,114.51 -64.4,155.4 -40.93,41 -97.6,64.4 -155.47,64.4l-4895.46 0c-89.61,0 -169.94,-54.01 -203.72,-137.03 -33.75,-83.05 -13.88,-177.84 50.33,-240.38l4895.46 -4766.74c63.19,-61.55 157.58,-79.34 238.89,-45.01 81.31,34.29 134.37,114.32 134.37,202.55l-219.86 0z"/>
   <path class="fil0" d="M3080.5 18332.38l7923.08 0 0 -892.98 -9004.07 0c-31.05,0 -61.81,-1.13 -92.24,-3.32 140.2,516.44 612.32,896.29 1173.23,896.29zm11658.4 -8717.77l816.19 0c-192.9,-274.06 -496.14,-464.8 -845.16,-507.66 18.95,86.84 28.97,177.04 28.97,269.5l0 238.16z"/>
   <path class="fil2" d="M11091.52 18332.38l3468.81 0c163.78,0 319.9,-32.36 462.47,-91.11l-726.83 0c-121.47,0 -219.9,-98.4 -219.9,-219.86 0,-121.39 98.43,-219.9 219.9,-219.9l1268.89 0c126.46,-185.13 203.1,-407.11 210.46,-646.65l-1479.35 0c-6.23,0 -12.32,-0.15 -18.4,-0.69 -217.24,178.21 -495.27,285.24 -798.26,285.24l-2387.78 0 0 892.98zm3528.28 -1617.26l1156.14 0 0 -646.55 -1037.04 0 0 111.23c0,191.4 -42.78,372.85 -119.1,535.32zm119.1 -1086.35l1037.04 0 0 -646.62 -1037.04 0 0 646.62zm0 -1086.38l1037.04 0 0 -646.62 -1037.04 0 0 646.62zm0 -1086.38l1037.04 0 0 -1124.79 -1037.04 0 0 1124.79z"/>
   <path class="fil0" d="M11003.58 18332.38l87.94 0 0 -892.98 -87.94 0 0 892.98zm3735.32 -8673.89l845.75 0c-9.58,-14.83 -19.46,-29.52 -29.56,-43.88l-816.19 0 0 43.88z"/>
   <polygon class="fil0" points="15775.94,12331.22 14738.9,12331.22 14738.9,11818.06 15775.94,11818.06 "/>
   <path class="fil2" d="M14738.9 11818.02l1037.04 0 0 -1504.61c0,-241.07 -70.26,-465.89 -191.29,-654.93l-845.75 0 0 2159.54z"/>
   <polygon class="fil0" points="15775.94,13895.78 14738.9,13895.78 14738.9,13456.02 15775.94,13456.02 "/>
   <polygon class="fil0" points="15775.94,14982.16 14738.9,14982.16 14738.9,14542.4 15775.94,14542.4 "/>
   <polygon class="fil0" points="15775.94,16068.58 14738.9,16068.58 14738.9,15628.78 15775.94,15628.78 "/>
   <path class="fil0" d="M14295.97 17154.85l1479.35 0c0.36,-12.54 0.62,-25.33 0.62,-38.05l0 -401.68 -1156.14 0c-80.32,170.88 -197.89,320.67 -342.24,439.04 6.09,0.55 12.17,0.69 18.4,0.69z"/>
   <path class="fil0" d="M14295.97 18241.27l726.83 0c220.85,-90.85 409.01,-244.94 542.06,-439.76l-1268.89 0c-121.47,0 -219.9,98.51 -219.9,219.9 0,121.47 98.43,219.86 219.9,219.86z"/>
   <path class="fil1" d="M1999.51 8160.95l11479.79 0c671.36,0 1215.61,544.25 1215.61,1215.5l0 6803.36c0,671.36 -544.25,1215.61 -1215.61,1215.61l-11479.79 0c-671.44,0 -1215.57,-544.25 -1215.57,-1215.61l0 -6803.36c0,-671.25 544.14,-1215.5 1215.57,-1215.5z"/>
   <path class="fil6" d="M1999.51 8160.95l0 -43.99 11479.79 0c695.71,0 1259.49,563.85 1259.6,1259.49l0 6803.36c-0.11,695.63 -563.89,1259.49 -1259.6,1259.6l-11479.79 0c-695.67,-0.11 -1259.56,-563.96 -1259.56,-1259.6l0 -6803.36c0,-695.63 563.89,-1259.49 1259.56,-1259.49l0 87.94c-323.66,0 -616.37,131.05 -828.51,343.12 -212.07,212.14 -343.12,504.78 -343.12,828.43l0 6803.36c0,323.69 131.05,616.33 343.12,828.47 212.14,212.14 504.85,343.19 828.51,343.19l11479.79 0c323.69,0 616.3,-131.05 828.43,-343.19 212.14,-212.14 343.12,-504.78 343.19,-828.47l0 -6803.36c-0.07,-323.58 -131.05,-616.3 -343.19,-828.43 -212.14,-212.07 -504.74,-343.12 -828.43,-343.12l-11479.79 0 0 -43.95z"/>
   <path class="fil2" d="M827.89 10833.57l13823.04 0 0 -1269.07c-142.2,-513.49 -612.83,-890.46 -1171.62,-890.46l-11479.79 0c-558.75,0 -1029.46,376.97 -1171.62,890.46l0 1269.07z"/>
   <path class="fil7" d="M783.94 10833.57l43.95 0 0 -1269.07c-28.64,103.5 -43.95,212.58 -43.95,325.15l0 943.92zm13866.99 0l43.99 0 0 -943.92c0,-112.68 -15.31,-221.65 -43.99,-325.15l0 1269.07z"/>
   <path class="fil1" d="M1999.51 8160.95l11479.79 0c671.36,0 1215.61,544.25 1215.61,1215.5l0 943.92 -13910.98 0 0 -943.92c0,-671.25 544.14,-1215.5 1215.57,-1215.5z"/>
   <path class="fil6" d="M1999.51 8160.95l0 -43.99 11479.79 0c695.71,0 1259.49,563.85 1259.6,1259.49l0 987.91 -13998.95 0 0 -987.91c0,-695.63 563.89,-1259.49 1259.56,-1259.49l0 87.94c-323.66,0 -616.37,131.05 -828.51,343.12 -212.07,212.21 -343.12,504.85 -343.12,828.43l0 899.94 13823.04 0 0 -899.94c-0.07,-323.58 -131.05,-616.22 -343.19,-828.43 -212.14,-212.07 -504.74,-343.12 -828.43,-343.12l-11479.79 0 0 -43.95z"/>
   <path class="fil8" d="M8636.94 9460.53l-1866.2 0c-121.47,0 -219.9,-98.4 -219.9,-219.86 0,-121.47 98.43,-219.9 219.9,-219.9l1866.2 0c121.47,0 219.9,98.43 219.9,219.9 0,121.47 -98.43,219.86 -219.9,219.86z"/>
   <path class="fil8" d="M5894.49 9460.53l-3791 0c-121.47,0 -219.86,-98.4 -219.86,-219.86 0,-121.47 98.4,-219.9 219.86,-219.9l3791 0c121.43,0 219.86,98.43 219.86,219.9 0,121.47 -98.43,219.86 -219.86,219.86z"/>
   <path class="fil3" d="M12834.14 9240.66c0,202.81 164.51,367.17 367.24,367.17 202.88,0 367.28,-164.36 367.28,-367.17 0,-202.84 -164.4,-367.24 -367.28,-367.24 -202.74,0 -367.24,164.4 -367.24,367.24z"/>
   <path class="fil4" d="M11370.79 9240.66c0,202.81 164.4,367.17 367.21,367.17 202.84,0 367.21,-164.36 367.21,-367.17 0,-202.84 -164.36,-367.24 -367.21,-367.24 -202.81,0 -367.21,164.4 -367.21,367.24z"/>
   <path class="fil5" d="M9907.25 9240.66c0,202.81 164.36,367.17 367.28,367.17 202.84,0 367.21,-164.36 367.21,-367.17 0,-202.84 -164.36,-367.24 -367.21,-367.24 -202.92,0 -367.28,164.4 -367.28,367.24z"/>
   <path class="fil9" d="M12654.91 15174c-882.41,-964.88 -1752.46,-1281.5 -2524.01,-1281.94 -771.62,-0.18 -1447.98,319.54 -1931.44,640.75 -241.62,160.5 -434.95,321.21 -567.57,441.51 -66.33,60.17 -117.53,110.31 -151.9,145.23 -17.24,17.42 -30.36,31.12 -39.03,40.34 -8.75,9.26 -12.86,13.81 -12.86,13.81l-32.43 36.15 -32.76 -35.97c-912.4,-1001.61 -1792.66,-1330.04 -2563.55,-1330.44 -771.11,-0.18 -1437.19,331.2 -1910.7,664.37 -236.59,166.51 -425,333.2 -553.87,457.99 -64.43,62.35 -114.07,114.36 -147.49,150.51 -16.69,18.08 -29.37,32.36 -37.72,41.91 -8.45,9.62 -12.43,14.36 -12.43,14.36l-67.42 -56.56c1.68,-1.82 285.83,-340.64 768.34,-680.15 482.44,-339.22 1164.34,-680.22 1961.28,-680.4 796.91,-0.44 1704.79,343.55 2628.56,1359.24l-32.43 29.63 -32.73 -29.45c1.64,-1.86 295.7,-328.25 788.06,-655.33 492.28,-326.86 1183.69,-655.26 1980.09,-655.44 796.44,-0.44 1694.63,331.05 2589.02,1310.51l-65.02 59.37z"/>
   <polygon class="fil10" points="12687.46,15188.32 2103.49,15188.32 2103.49,15100.39 12687.46,15100.39 "/>
   <polygon class="fil10" points="2147.47,15468.1 2059.5,15468.1 2059.5,14582.38 2147.47,14582.38 "/>
   <polygon class="fil10" points="12731.45,15468.1 12643.47,15468.1 12643.47,14582.38 12731.45,14582.38 "/>
   <path class="fil10" d="M1989.6 13707.8l0 -43.99 227.81 0c104.12,0 188.49,84.37 188.49,188.49l0 227.81c0,104.16 -84.37,188.49 -188.49,188.49l-227.81 0c-104.16,0 -188.49,-84.33 -188.49,-188.49l0 -227.81c0,-104.12 84.33,-188.49 188.49,-188.49l0 87.97c-55.5,0.07 -100.44,45.01 -100.51,100.51l0 227.81c0.07,55.5 45.01,100.44 100.51,100.51l227.81 0c55.5,-0.07 100.44,-45.01 100.51,-100.51l0 -227.81c-0.07,-55.5 -45.01,-100.44 -100.51,-100.51l-227.81 0 0 -43.99z"/>
   <path class="fil10" d="M12573.57 13707.8l0 -43.99 227.77 0c104.16,0 188.49,84.37 188.49,188.49l0 227.81c0,104.16 -84.33,188.49 -188.49,188.49l-227.77 0c-104.16,0 -188.52,-84.33 -188.52,-188.49l0 -227.81c0,-104.12 84.37,-188.49 188.52,-188.49l0 87.97c-55.54,0.07 -100.44,45.01 -100.55,100.51l0 227.81c0.11,55.5 45.01,100.44 100.55,100.51l227.77 0c55.5,-0.07 100.44,-45.01 100.55,-100.51l0 -227.81c-0.11,-55.5 -45.04,-100.44 -100.55,-100.51l-227.77 0 0 -43.99z"/>
   <path class="fil10" d="M7281.57 15523.6l0 -43.99 227.81 0c104.12,0 188.49,84.37 188.49,188.41l0 227.88c0,104.16 -84.37,188.38 -188.49,188.49l-227.81 0c-104.12,-0.11 -188.49,-84.33 -188.49,-188.49l0 -227.88c0,-104.05 84.37,-188.41 188.49,-188.41l0 87.97c-55.5,0.07 -100.44,44.93 -100.51,100.44l0 227.88c0.07,55.5 45.01,100.37 100.51,100.51l227.81 0c55.5,-0.15 100.44,-45.01 100.51,-100.51l0 -227.88c-0.07,-55.5 -45.01,-100.37 -100.51,-100.44l-227.81 0 0 -43.99z"/>
   <path class="fil11" d="M6621.25 15781.99l43.95 0c0,201.79 81.6,384.12 213.89,516.41 132.29,132.18 314.54,213.89 516.41,213.89 201.75,0 384.08,-81.71 516.37,-213.89 132.29,-132.29 213.89,-314.62 213.89,-516.41 0,-201.82 -81.6,-384.15 -213.89,-516.44 -132.29,-132.29 -314.62,-213.89 -516.37,-213.89 -201.86,0 -384.12,81.6 -516.41,213.89 -132.29,132.29 -213.89,314.62 -213.89,516.44l-87.94 0c0,-451.97 366.33,-818.3 818.23,-818.3 451.86,0 818.23,366.33 818.23,818.3 0,451.94 -366.37,818.16 -818.23,818.23 -451.9,-0.07 -818.23,-366.29 -818.23,-818.23l43.99 0z"/>
   <path class="fil5" d="M12488.08 12890.96l107.03 -165.49 103.97 164.54c19.06,30.25 52.41,48.62 88.19,48.62l46.1 0c84.88,0 134.22,-96.03 84.77,-165.05l-170.19 -237.39 162.72 -231.31c48.58,-69.17 -0.87,-164.32 -85.28,-164.32l-46.03 0c-34.55,0 -66.91,17.27 -86.37,45.92l-104.56 154.7 -101.42 -153.72c-19.24,-29.3 -52,-46.9 -87.06,-46.9l-29.99 0c-85.06,0 -134.33,96.14 -84.73,165.16l158.31 220.16 -176.68 247.89c-49.16,69.13 0.18,164.87 84.95,164.87l48.65 0c35.35,0 68.33,-17.89 87.61,-47.67z"/>
   <path class="fil5" d="M10556.06 12649.01l0 185.32c0,57.62 46.65,104.3 104.34,104.3l60.42 0c57.62,0 104.3,-46.68 104.3,-104.3l0 -188.74 206.96 -347.31c41.51,-69.57 -8.6,-157.73 -89.54,-157.73l-40.71 0c-36.84,0 -71.06,19.46 -89.87,51.2l-132.76 224.71 -133.86 -224.97c-18.8,-31.6 -52.95,-50.95 -89.69,-50.95l-17.6 0c-80.83,0 -130.98,87.9 -89.8,157.44l207.8 351.02z"/>
   <path class="fil5" d="M8698.93 12834.33l0 0c0,57.62 46.72,104.3 104.34,104.3l502.05 0c70.01,0 126.71,-56.71 126.71,-126.64 0,-24.96 -9.04,-49.05 -25.22,-67.97l-339.69 -394.83 249.09 0c57.69,0 104.41,-46.68 104.41,-104.3 0,-57.62 -46.72,-104.34 -104.41,-104.34l-472.38 0c-69.94,0 -126.68,56.63 -126.68,126.57 0,25 8.97,49.2 25.26,68.08l339.58 394.76 -278.72 0c-57.62,0 -104.34,46.79 -104.34,104.37z"/>
   <path class="fil5" d="M11325.85 12484.8l452.26 0c44.5,0 80.58,-36.12 80.58,-80.65l0 -63.99c0,-44.61 -36.08,-80.69 -80.58,-80.69l-452.26 0c-44.53,0 -80.58,36.08 -80.58,80.69l0 63.99c0,44.53 36.04,80.65 80.58,80.65z"/>
   <path class="fil5" d="M11325.85 12847.88l452.26 0c44.5,0 80.58,-36.08 80.58,-80.58l0 -64.1c0,-44.5 -36.08,-80.58 -80.58,-80.58l-452.26 0c-44.53,0 -80.58,36.08 -80.58,80.58l0 64.1c0,44.5 36.04,80.58 80.58,80.58z"/>
   <path class="fil5" d="M9776.75 12795.55l319.79 -319.72c31.38,-31.49 31.38,-82.58 0,-114.07l-45.41 -45.3c-31.49,-31.49 -82.51,-31.49 -114,0l-319.79 319.79c-31.38,31.52 -31.38,82.51 0,114l45.41 45.3c31.38,31.49 82.4,31.49 114,0z"/>
   <path class="fil5" d="M10096.54 12636.26l-319.79 -319.79c-31.6,-31.49 -82.62,-31.49 -114,0l-45.41 45.3c-31.38,31.49 -31.38,82.58 0,114.07l319.79 319.72c31.49,31.49 82.51,31.49 114,0l45.41 -45.3c31.38,-31.49 31.38,-82.47 0,-114z"/>
   <path class="fil8" d="M7739.48 12386.22l-5636 0c-121.47,0 -219.86,-98.51 -219.86,-219.86 0,-121.47 98.4,-219.9 219.86,-219.9l5636 0c121.36,0 219.86,98.43 219.86,219.9 0,121.36 -98.51,219.86 -219.86,219.86z"/>
   <path class="fil8" d="M7739.48 13250.73l-2817.96 0c-121.47,0 -219.86,-98.43 -219.86,-219.9 0,-121.47 98.4,-219.9 219.86,-219.9l2817.96 0c121.36,0 219.86,98.43 219.86,219.9 0,121.47 -98.51,219.9 -219.86,219.9z"/>
   <path class="fil11" d="M23476.17 29775.4l9984.66 0c2219.12,-225.44 1783.37,-2669.02 -716.12,-3830.91 -59.91,-29.45 -121.79,-56.89 -184.77,-83.27l-8124.03 -312.76c-140.09,77.11 -287.32,164.47 -435.61,261.92 -8.2,5.1 -15.31,10.2 -23.4,15.31 -1517.36,1000.38 -3214.43,2951.34 -500.73,3949.72z"/>
   <path class="fil12" d="M34044.4 32657.43l-11597.8 0c746.8,-3917.17 2212.01,-6002.98 2212.01,-6002.98l7083.31 -421.8c1680.81,1656.69 2166.75,4594.51 2302.47,6424.78z"/>
   <path class="fil13" d="M19033.74 24021.91c318.37,2533.15 5001.99,2778.57 4202.52,-780.48l-4202.52 780.48z"/>
   <path class="fil13" d="M19403.86 22958.2l2933.6 2708.12c957.48,-990.03 4508.21,-6213.3 5173.75,-8655.16 284.73,-1045.35 -280.47,-2136.98 -1301.51,-2501.38 -423.77,-150.84 -869.51,-155.5 -1277.35,-36.63 -444.17,129.74 -842.25,403.47 -1120.6,801.28l-4407.88 7683.76z"/>
   <path class="fil10" d="M15447.37 17469.22l719.1 510.65c152.88,108.53 364.91,72.67 473.44,-80.18l430.25 -605.76c108.53,-152.95 72.67,-364.8 -80.29,-473.44l-718.99 -510.65c-152.95,-108.64 -364.95,-72.74 -473.47,80.21l-430.25 605.73c-108.53,152.84 -72.67,364.84 80.21,473.44z"/>
   <path class="fil14" d="M13895.85 16873.95c1283.69,810.43 2412.13,5448.82 5069.92,7428.29 149.42,110.64 305.8,199.05 465.17,267.13 1374.18,574.75 3015.41,-437.76 3015.41,-2042.48l-1969.3 -1798.64 -4435.22 -4051.32 -2145.98 197.01z"/>
   <path class="fil15" d="M19430.94 24569.37c1374.18,574.75 3015.41,-437.76 3015.41,-2042.48l-1969.3 -1798.64c1279.28,2400.61 584.01,4174.03 -1044,3840.06l-2.11 1.06z"/>
   <path class="fil14" d="M16041.76 16676.5l488.38 1196.59c-2127.57,1052.2 -3646.25,63.45 -4586.93,-77.37l1244.37 -2521.82 2854.19 1402.6z"/>
   <path class="fil14" d="M12420.87 16409.84c46.98,29.81 89.8,68.7 123.76,116.69 9.33,13.19 17.49,25.69 25.04,39.32 81.38,139.65 79.01,309.66 2.3,444.32 -28.68,52.19 -68.51,98.8 -117.49,136.63l-308.9 239.4 -436.78 337.03c-62.9,48.21 -133.71,76.53 -205.91,86.37 -101.75,14.69 -205.18,-7.03 -292.97,-62.79 -47.05,-29.85 -89.18,-69.86 -123.22,-117.75 -124.56,-175.84 -99.67,-413.74 51.28,-561.34l0.69 -1.06c8.09,-8.09 17.16,-15.49 26.31,-22.96l727.63 -601.17 22.34 -16.62c153.39,-112.32 354.38,-112.32 505.91,-16.07z"/>
   <path class="fil14" d="M9503.35 15280.56c-36.3,-216.33 121.32,-417.06 340.24,-432.88l1885.44 -137.14 1851.22 534.15 -313.09 1590.72 -2040 -1201.33 -1368.46 -43.11c-177.15,-5.65 -325.95,-135.46 -355.36,-310.43z"/>
   <polygon class="fil16" points="13580.25,15244.7 13201.09,15135.37 11766.93,15387.27 11524.54,15809.18 13355.91,16839.65 "/>
   <path class="fil14" d="M11454.79 18399.22c91.4,125.44 245.92,198.11 411.27,176.97l935.83 -126.02c240.38,-32.87 413.2,-251.35 388.38,-493.08 -7.36,-69.13 -31.31,-132.98 -65.6,-189.36 -6.09,-11.44 -12.46,-20.19 -18.99,-29.12l-18.66 -22.49c-98.76,-120.08 -256.96,-185.5 -421.03,-156.38l-930.04 155.83c-131.82,23.72 -242.46,104.3 -304.3,214.87 -8.89,15.56 -16.76,32.62 -24.71,49.6 -27.88,61.04 -40.2,130.98 -33.16,202.66 8.02,82.22 36.95,156.01 81.01,216.51z"/>
   <path class="fil16" d="M11431.65 17930.45c65.02,51.97 145.99,85.57 236.52,91.98l939.95 71.9c234.95,18.62 519.1,-132.76 516.55,-449.9 -98.76,-120.05 -294.61,-113.81 -458.68,-84.69l-930.04 155.83c-131.82,23.72 -242.46,104.3 -304.3,214.87z"/>
   <path class="fil16" d="M11741.71 17482.59c64.1,104.16 171.76,181.53 302.3,201.93l643.88 88.41c240.31,38.59 467.02,-122.45 511.63,-359.92 18.48,-105.72 1.31,-206.71 -45.63,-293.52 -3.28,-8.71 -9,-18 -13.81,-25.84 -69.86,-113.49 -185.97,-194.21 -327.74,-211.99l-648.04 -60.2c-110.9,-13.12 -218.92,16.87 -303.72,77.66 -88.89,61.19 -152.59,156.09 -175.48,268.77 -22.74,112.68 0.11,222.96 56.6,314.69z"/>
   <path class="fil14" d="M12971.9 17198.08c5.25,7.73 11.7,16.18 16.25,24.96 6.89,10.2 11.92,20.77 17.6,30.25l-0.69 0.98c41.25,76.06 59.99,164.29 50.4,257.87 -25.18,240.64 -239.32,418.48 -482.18,399.24l-940.57 -70.66c-45.74,-4.12 -89.25,-14.14 -129.81,-31.12 -75.98,-30.5 -141.33,-82.33 -188.12,-147.23 -63.45,-87.14 -94.64,-194.97 -80.76,-309.33 8.89,-64.72 29.92,-123.29 62.03,-176.24 25.15,-39.69 56.71,-75.37 93.11,-105.14 79.16,-66.98 184.44,-105.69 295.89,-101.02l886.93 39.54 57.11 2.48c142.38,6.78 264.11,78.28 342.82,185.42z"/>
   <path class="fil16" d="M12563.99 17005.11l57.07 2.55c142.38,6.78 264.22,78.17 342.75,185.32 5.47,7.73 11.77,16.25 16.44,25.04 6.78,10.13 11.7,20.66 17.53,30.18l-0.73 1.06c-94.39,171.76 -296.65,266.33 -496.51,218.55l-362.87 -86.7 -786.67 -188.49c-21.72,-4.92 -43.88,-11.7 -62.94,-20.96 -62.14,-24.6 -114.4,-62.25 -158.09,-109.04l0.69 -1.06c8.02,-8.09 17.16,-15.45 26.31,-22.89l727.74 -601.25 22.16 -16.58 654.74 139.91c81.41,139.65 79.05,309.77 2.37,444.36z"/>
   <path class="fil14" d="M12472.44 15751.85c65.74,41.76 120.99,100.33 159.19,174.31 111.23,217.31 28.9,483.31 -183.42,600.74l-266.66 147.49 -560.17 307.15c-83.82,46.61 -177.12,61.99 -264.98,50.29 -63.45,-6.49 -123.94,-28.83 -178.39,-63.38 -65.89,-41.8 -120.41,-101.35 -156.74,-175.77 -100,-202.81 -26.9,-449.6 167.02,-565.6l262.98 -155.61 278.65 -166.33 270.12 -159.88c151.9,-91.29 333.35,-81.63 472.42,6.6z"/>
   <path class="fil16" d="M11698.53 16755.14c47.38,112.65 141.95,205.61 267.71,245.81l622.78 186.01c231.6,74.96 480.25,-49.49 560.72,-277.41 34.55,-101.57 33.05,-203.94 -0.18,-297.01 -1.75,-9.15 -6.05,-19.17 -9.58,-27.62 -51.6,-122.85 -154.08,-220.37 -291.4,-259.7l-631.13 -158.68c-107.65,-29.99 -218.92,-16.91 -312.07,30.18 -97.19,46.79 -174.67,130.98 -214.51,238.78 -39.83,107.84 -34.07,220.34 7.65,319.65z"/>
   <path class="fil14" d="M11242.58 16861.3c55.9,108.71 157.4,194.03 286.01,224.27l919.54 214.18c236.7,56.71 474.97,-86.59 537.4,-320.08 26.57,-103.97 17.06,-205.98 -23.21,-296.03 -2.55,-8.97 -7.47,-18.77 -11.7,-26.93 -61.04,-118.37 -170.7,-207.66 -310.75,-236.26l-925.7 -186.26c-109.7,-21.47 -219.61,0.26 -308.79,54.37 -93.26,54.23 -163.96,144.02 -195.26,254.7 -31.41,110.64 -16.98,222.34 32.47,318.04z"/>
   <path class="fil16" d="M15512.45 16902.63l-2089.53 -1205.59 -1443.93 287.36 508.46 722.64 595.71 58.82c0,0 893.16,1759.86 2429.29,136.77z"/>
   <path class="fil16" d="M11979 15984.4l-358.68 774.94c-77.92,168.44 -6.41,368.3 160.86,448.84 148.47,71.61 327.01,26.24 423.22,-107.65l283.06 -393.48 -508.46 -722.64z"/>
   <path class="fil14" d="M16041.76 16676.5l-2461.51 -1431.79 -1705.56 333.28 597.16 855.15 703.03 71.87c0,0 1047.02,2080.96 2866.87,171.5z"/>
   <path class="fil16" d="M11729.9 15905.13l556.93 545.71 -105.29 223.54 -139.03 292.97c-7.33,15.93 -15.42,31.23 -24.13,44.79 -93.48,147.38 -272.31,218.73 -444.43,171.03 -91.55,-24.42 -166.58,-79.37 -217.57,-151.35 -68.44,-93.3 -95.55,-214.62 -64.94,-334.48l159.8 -625.88 278.65 -166.33z"/>
   <path class="fil14" d="M11874.69 15577.98l-426.57 913.38c-92.71,198.44 -9.07,434.59 187.94,530.33 175.11,85.17 385.94,32.29 500.19,-125.33l335.61 -463.23 -597.16 -855.15z"/>
   <polygon class="fil10" points="16087.13,16624.35 14866.86,18451.84 15260.45,19065.99 16748.87,17153.11 "/>
   <path class="fil11" d="M23236.52 28783.12l7671.99 13.19 2786.87 5.1c0,0 -507.8,-1230.92 -950.67,-2856.92 -371.69,-1366.09 -697.64,-3009.33 -638.82,-4435.22 34.58,-852.2 146.28,-1747.91 145.3,-2666.03 -1.02,-582.95 486.59,-4614.66 0,-4985.66 -1121.48,-855.11 -4345.86,-991.34 -4151.83,-808.46l-2525.94 1436.02c-141.15,484.52 -1509.2,2380.64 -1729.61,3479.52 -18.19,82.33 -33.49,168.59 -47.67,252.95 -43.7,287.43 -72.09,580.95 -69.1,881.53 -0.98,83.31 1.02,171.72 12.21,260.02 4.99,126.9 19.35,259 40.63,386.99 122.85,759.63 476.35,1514.3 1216.74,2176.41l-11.26 50.84 -2.04 11.15 -490.49 1907.35 -492.53 1918.46 -13.19 50.84 -750.59 2921.9z"/>
   <path class="fil13" d="M23976.91 25825.69l10.2 35.53 6643.11 1991.6 278.28 943.49 191.98 649.02 512.87 330.07 1847.47 0c2219.12,-225.44 1783.37,-2669.02 -716.12,-3830.91 -371.69,-1366.09 -697.64,-3009.33 -638.82,-4435.22 34.58,-852.2 146.28,-1747.91 145.3,-2666.03l-2530.49 -2617.23 63.23 6173.54 -4358.79 747.93 -932.3 744.43 -492.53 1918.46c-8.2,5.1 -15.31,10.2 -23.4,15.31z"/>
   <polygon class="fil9" points="27987.41,19847.05 28024.44,19823.4 29425.98,22012.27 30812.29,19847.05 29425.98,17681.79 28024.44,19870.81 27987.41,19847.05 28024.44,19823.4 27987.41,19847.05 27950.38,19823.4 29425.98,17518.74 30916.67,19847.05 29425.98,22175.43 27935.15,19847.05 27950.38,19823.4 "/>
   <polygon class="fil9" points="25125.83,19847.05 25162.96,19823.4 26564.4,22012.27 27950.82,19847.05 26564.4,17681.79 25162.96,19870.81 25125.83,19847.05 25162.96,19823.4 25125.83,19847.05 25088.8,19823.4 26564.4,17518.74 28055.19,19847.05 26564.4,22175.43 25073.67,19847.05 25088.8,19823.4 "/>
   <path class="fil9" d="M24288.79 21097.25l800.48 -1250.2 -1235.58 -1929.76c8.6,-38.12 18.51,-77.11 29.59,-116.87l1310.47 2046.63 -852.2 1330.92c-18.04,-26.86 -35.64,-53.72 -52.77,-80.72z"/>
   <path class="fil10" d="M21983.26 6785.32c0,928.73 752.89,1681.61 1681.69,1681.61 928.69,0 1681.65,-752.89 1681.65,-1681.61 0,-928.76 -752.96,-1681.72 -1681.65,-1681.72 -928.8,0 -1681.69,752.96 -1681.69,1681.72z"/>
   <path class="fil10" d="M23695.89 4883.11c0,928.76 752.89,1681.65 1681.69,1681.65 928.69,0 1681.65,-752.89 1681.65,-1681.65 0,-928.84 -752.96,-1681.69 -1681.65,-1681.69 -928.8,0 -1681.69,752.85 -1681.69,1681.69z"/>
   <path class="fil10" d="M25894.64 5494.96c0,928.8 752.89,1681.69 1681.69,1681.69 928.69,0 1681.65,-752.89 1681.65,-1681.69 0,-928.69 -752.96,-1681.58 -1681.65,-1681.58 -928.8,0 -1681.69,752.89 -1681.69,1681.58z"/>
   <path class="fil10" d="M29686.23 6521.83c679.09,1739.56 438.71,2846.97 -658.17,3570.05l-1039.15 -1133.9 621.36 -2727.69 1075.96 291.55z"/>
   <polygon class="fil14" points="29098.25,8957.97 28703.34,13194.17 25548.46,15326.34 25503.53,10103.9 "/>
   <polygon class="fil10" points="29613.85,10142.09 28866.17,11448.01 28398.31,10452.67 "/>
   <path class="fil16" d="M25533.05 13542.46c0,0 1946.09,-351.1 2002.46,-2547.59l-2031.98 661.67 29.52 1885.92z"/>
   <path class="fil10" d="M24232.23 5874.34c-940.94,1153.69 -1064.59,2673.43 -1064.59,2673.43l1020.35 161.19 775.3 -2444.01 -731.06 -390.6z"/>
   <path class="fil14" d="M28779 7225.55l-303.61 1201.69 -139.07 547.78 -372.31 1470.39c-200.99,793.81 -798.62,1426.98 -1579.57,1673.34l-1214.12 382.95c-1052.42,332.04 -2134.68,-398.62 -2232.6,-1497.87 -71.83,-806.5 -71.39,-1747.54 235.64,-2747.3 357.15,-1161.42 1288.43,-2068.75 2396.49,-2431.04l4.56 -1.31 194.46 -58.13 20.96 -5.28c97.05,-25.36 197.05,-46.17 296.98,-62.54 237.03,-42.06 482.26,-60.17 729.78,-52.95l785.47 22.96c800.05,23.21 1372.87,781.28 1176.94,1557.31z"/>
   <path class="fil1" d="M22227.87 8967.56l43.95 0c0,302.3 110.57,575.3 288.34,772.31 177.84,196.94 421.54,317.53 690.61,317.53 268.95,0 512.65,-120.59 690.5,-317.53 177.66,-197.01 288.3,-470.01 288.3,-772.31 0,-302.37 -110.64,-575.41 -288.3,-772.31 -177.84,-197.01 -421.54,-317.53 -690.5,-317.61 -269.06,0.07 -512.76,120.59 -690.61,317.61 -177.77,196.9 -288.34,469.94 -288.34,772.31l-87.94 0c0,-323.95 118.37,-617.79 310.9,-831.24 192.39,-213.38 460.1,-346.72 755.99,-346.65 295.78,-0.07 563.49,133.27 755.84,346.65 192.57,213.45 310.86,507.29 310.94,831.24 -0.07,323.84 -118.37,617.79 -310.94,831.17 -192.35,213.45 -460.06,346.69 -755.84,346.61 -295.89,0.07 -563.6,-133.16 -755.99,-346.61 -192.53,-213.38 -310.9,-507.33 -310.9,-831.17l43.99 0z"/>
   <path class="fil12" d="M23635.58 9206.19c-27.73,287.83 56.2,531.57 187.5,544.25 131.31,12.65 260.24,-210.57 287.94,-498.55 27.81,-287.87 -56.2,-531.49 -187.5,-544.21 -131.31,-12.68 -260.17,210.53 -287.94,498.51z"/>
   <path class="fil14" d="M24467.69 8777.9c-263.52,633.79 -698.81,764.44 -1001.1,768.85 -194.1,2.77 -353.58,152.92 -369.21,346.4 -20.41,255.36 111.26,498.73 336.23,621.18l795.96 432.88c446.4,149.35 924.32,-118.04 1030.66,-576.54l360.35 -1554.14 -1152.89 -38.63z"/>
   <path class="fil16" d="M23935.65 10845.09l48.47 -89.18 -526.21 -286.26c-207.15,-112.61 -328.79,-337.25 -309.88,-572.42 13.52,-168.33 150.84,-297.2 319.28,-299.75 327.96,-4.74 775.99,-147.41 1047.24,-800.05l-93.73 -38.92c-250.15,601.65 -657.41,733.06 -955.04,737.4 -220.99,3.32 -401.24,172.27 -418.99,393.23 -22.08,275.11 120.23,538.02 362.65,669.76l526.21 286.19z"/>
   <path class="fil12" d="M25382.82 9466.5c-27.7,287.9 56.23,531.6 187.61,544.25 131.23,12.68 260.17,-210.53 287.98,-498.51 27.7,-287.87 -56.31,-531.57 -187.54,-544.25 -131.31,-12.57 -260.24,210.57 -288.05,498.51z"/>
   <path class="fil10" d="M26123.94 8322.65c654.53,273.04 834.41,-63.05 364.91,-347.56 -505.03,-305.98 -1179.39,7.91 -364.91,347.56z"/>
   <path class="fil10" d="M24237.59 8015.98c510.68,-82.84 368.95,-404.23 -58.2,-409.26 -459.41,-5.25 -577.08,512.43 58.2,409.26z"/>
   <path class="fil1" d="M24227.13 11058.29l1178.15 -90.93c0,0 -132.55,680.58 -474.42,754.2 -371.69,80.03 -703.72,-663.27 -703.72,-663.27z"/>
   <path class="fil1" d="M24816.24 9489.35l43.99 0c0,302.41 110.57,575.41 288.23,772.35 177.81,197.01 421.54,317.61 690.61,317.61 268.95,0 512.65,-120.59 690.53,-317.61 177.66,-196.94 288.3,-469.94 288.3,-772.35 0,-302.26 -110.64,-575.3 -288.3,-772.28 -177.88,-196.94 -421.58,-317.53 -690.53,-317.53 -269.06,0 -512.8,120.59 -690.61,317.53 -177.66,196.98 -288.23,470.01 -288.23,772.28l-87.94 0c0,-323.84 118.37,-617.75 310.9,-831.13 192.35,-213.45 459.99,-346.72 755.88,-346.61 295.89,-0.11 563.53,133.16 755.88,346.61 192.53,213.38 310.9,507.29 310.9,831.13 0,323.95 -118.37,617.83 -310.9,831.28 -192.35,213.45 -459.99,346.72 -755.88,346.61 -295.89,0.11 -563.53,-133.16 -755.88,-346.61 -192.53,-213.45 -310.9,-507.33 -310.9,-831.28l43.95 0z"/>
   <polygon class="fil1" points="26848.29,9235.2 27992.77,8911.18 28016.67,8995.8 26872.24,9319.82 "/>
   <path class="fil10" d="M27079.89 5655.49c-618.12,1460.22 545.6,3457.62 2985.75,3312.06 1027.49,-2075.68 983.61,-3931.97 -2985.75,-3312.06z"/>
   <path class="fil14" d="M27918.46 9130.02c2450.46,-3366.8 3723.15,1964.49 121.65,1684.93l-121.65 -1684.93z"/>
   <polygon class="fil10" points="27944.48,6973.91 27898.81,9801.78 28135.77,9960.02 29028.05,7241.12 "/>
   <path class="fil10" d="M27809.49 5960.85c-1959.17,767.32 -3744.03,133.16 -3744.03,133.16 0,0 650.59,-1566.34 3744.03,-133.16z"/>
   <path class="fil10" d="M30285.61 6281.81c0,-995.46 1099.36,-518.3 344.61,126.31 1323.96,-178.83 321.83,1463.06 -287.87,888.86l-56.74 -1015.17z"/>
   <path class="fil1" d="M25427.14 15381.99l0 0c-425.04,-2310.08 1748.45,-2799.63 3390.45,-3474.42l903.11 1161.71 -4293.56 2312.71z"/>
   <path class="fil11" d="M33159.88 22002.18c-1734.57,-335.28 -3330.47,150.66 -2477.14,1864.42l2639.31 155.32 -162.17 -2019.74z"/>
   <path class="fil11" d="M33547.2 26964.58c4683.8,1211.02 3926.68,-3812.32 1138.42,-4565.03l-1138.42 4565.03z"/>
   <path class="fil11" d="M33336.99 25696.13l2788.59 410.39c498.8,-3951.25 -672.68,-8260.33 -3295.74,-11736.54 -612.51,-811.67 -1746.85,-1015.14 -2603.05,-466.66 -738.38,472.93 -1069,1381.39 -807.15,2218.21l3917.35 9574.6z"/>
   <path class="fil0" d="M19483.45 19996.14l217.6 -275.11 0.69 1.38c25.26,-29.67 60.1,-51.9 104.48,-57.87l4180.44 -551.97c122.16,-16.18 243.99,32.07 321.91,127.52l4490.72 5498.86c78.61,96.32 29.12,241.77 -92.02,269.9l-2879.84 671.55c-118.11,27.44 -241.95,-7.03 -328.87,-91.55l-5741.86 -5592.7 -273.25 0z"/>
   <path class="fil1" d="M28586.43 25008.15l-4490.72 -5498.75c-77.92,-95.45 -199.75,-143.73 -321.91,-127.63l-4180.4 552.08c-139.14,18.37 -195.81,189.11 -95.26,286.99l5787.6 5637.2c86.81,84.51 210.72,119.1 328.79,91.55l2879.84 -671.51c121.1,-28.13 170.7,-173.62 92.06,-269.94z"/>
   <path class="fil0" d="M23000.51 22318.91c242.31,403.43 721.95,724.39 1071.22,716.88 349.24,-7.58 435.97,-340.71 193.66,-744.25 -242.31,-403.43 -721.91,-724.39 -1071.19,-716.92 -349.28,7.58 -435.97,340.71 -193.7,744.29z"/>
   <path class="fil0" d="M23624.46 19967.2c56.56,94.17 168.62,169.06 250.15,167.35 81.63,-1.75 101.86,-79.52 45.3,-173.76 -56.63,-94.32 -168.62,-169.24 -250.22,-167.49 -81.56,1.75 -101.86,79.52 -45.23,173.91z"/>
   <polygon class="fil14" points="25440.81,25216.93 21637.7,22621.35 26522.71,22989.36 26936.78,24625.02 "/>
   <path class="fil14" d="M26137.83 23159l687.73 -97.09c203.17,-28.68 324.64,-241.44 246.07,-430.98l-24.2 -58.49c-148.62,-358.75 -573.69,-512.03 -917.07,-330.51 -230.18,121.72 -367.21,367.64 -349.6,627.45 12.39,181.89 176.61,315.05 357.07,289.62z"/>
   <path class="fil14" d="M24627.5 23128.86l-2989.46 -506.89 -35.61 -88.05c-139.58,-346.1 -423.84,-612.76 -777.67,-729.05 -56.74,-19.35 -93.15,-72.81 -91.84,-129.88 0.18,-9.04 1.93,-18.11 3.61,-27 53.46,-238.01 266.22,-398.62 500.81,-393.34 39.03,0.87 78.03,7.73 118.37,17.68l177.59 61.23 17.93 6.41c306.02,106.16 539.51,355.18 625.7,666.95l2373.17 1087.04 77.41 34.91z"/>
   <path class="fil16" d="M23517.28 23254.45l-1363.13 -470.45c-192.42,-583.06 -519.54,-807.41 -873.37,-923.7 -56.74,-19.35 -93.11,-72.81 -91.84,-129.99 0.22,-8.97 1.86,-17.97 3.61,-26.93 40.2,-182.58 175.66,-319.43 340.75,-369.83l17.93 6.41c306.02,106.16 539.51,355.18 625.7,666.95l258.06 632.48 1082.3 615.06z"/>
   <path class="fil14" d="M22434.98 22639.39l-35.35 -87.68c-139.21,-345.48 -423.58,-612.25 -777.34,-729.05 -65.42,-21.54 -103.79,-89.18 -88.74,-156.49 62.35,-278.28 343.37,-449.09 619.1,-376.32l195.56 68.04c305.62,106.52 539.66,355.87 626.54,667.57l2450.32 1121.59 -2990.08 -507.66z"/>
   <path class="fil14" d="M32400.72 23254.34l-6025.43 610.07 -934.49 1352.53c0,0 4119.54,2067.19 7981.07,1810.37 1670.03,-111.08 2254.94,-2271.6 866.88,-3206.78l-218.08 -146.98c-490.6,-330.54 -1081.35,-478.83 -1669.95,-419.21z"/>
   <polygon class="fil1" points="33809.85,30275.01 26897.49,31233.4 26519.54,28801.92 33282.55,28801.16 "/>
   <polygon class="fil1" points="25983.74,28801.92 25545.55,31233.4 23041.07,30275.01 23568.15,28801.92 "/>
   <path class="fil13" d="M20505.47 35220.51l0 3602.15 -18315.18 0c-446.18,0 -826.07,-303.54 -968.27,-728.18 -39.65,-115.93 -61.04,-241.44 -61.04,-372.56l0 -1400.6c0,-138.78 24.27,-271.21 68.19,-393.59 147.56,-413.2 522.6,-707.22 961.13,-707.22l18315.18 0z"/>
   <path class="fil11" d="M11585.77 35927.73l0 2166.75 -10363.74 0c-39.65,-115.93 -61.04,-241.44 -61.04,-372.56l0 -1400.6c0,-138.78 24.27,-271.21 68.19,-393.59l10356.6 0z"/>
   <path class="fil4" d="M7541.48 37011.12c0,441.29 357.69,799.1 799.06,799.1 441.26,0 799.02,-357.8 799.02,-799.1 0,-441.33 -357.77,-799.02 -799.02,-799.02 -441.37,0 -799.06,357.69 -799.06,799.02z"/>
   <path class="fil11" d="M11935.45 35220.43l8271.92 0 0 3602.48 -8271.92 0c-827.2,0 -1497.76,-670.49 -1497.76,-1497.57l0 -607.15c0,-827.2 670.56,-1497.76 1497.76,-1497.76z"/>
   <path class="fil11" d="M20707.77 35220.43l-1578.88 0 0 539.77 1578.88 0c139.29,0 252.26,-120.85 252.26,-269.86 0,-149.09 -112.98,-269.9 -252.26,-269.9z"/>
   <path class="fil11" d="M20735.62 38282.97l-1606.72 0 0 539.62 1606.72 0c123.94,0 224.42,-100.47 224.42,-224.31l0 -90.96c0,-123.98 -100.47,-224.35 -224.42,-224.35z"/>
   <path class="fil17" d="M12134.06 35760.56l8371.41 0 0 2522.4 -8371.41 0c-579.02,0 -1048.48,-469.47 -1048.48,-1048.66l0 -425.08c0,-579.16 469.47,-1048.66 1048.48,-1048.66z"/>
   <path class="fil1" d="M12347.95 36091.98l8157.52 0 0 2190.99 -8436.61 0c-314.25,0 -569.07,-254.89 -569.07,-569.25l0 -773.62c0,-468.45 379.74,-848.11 848.15,-848.11z"/>
   <path class="fil18" d="M20505.47 36589.4l-9003.16 0c2.84,-30.07 8.09,-59.48 15.56,-87.94l8987.6 0 0 87.94z"/>
   <polygon class="fil18" points="20505.47,37035.43 11499.8,37035.43 11499.8,36947.49 20505.47,36947.49 "/>
   <polygon class="fil18" points="20505.47,37481.46 11499.8,37481.46 11499.8,37393.53 20505.47,37393.53 "/>
   <path class="fil18" d="M20505.47 37927.53l-9004.44 0c-0.8,-10.17 -1.24,-20.52 -1.24,-30.94l0 -57 9005.68 0 0 87.94z"/>
   <path class="fil9" d="M2823.57 38094.48l1019.91 0c143.26,425 522.35,727.89 968.45,727.89l-1943.61 0c-446.11,0 -825.26,-302.88 -968.52,-727.89l923.77 0z"/>
   <path class="fil9" d="M2868.33 35220.32l1943.61 0c-438.78,0 -812.44,293.77 -961.05,707.19l-1943.72 0c148.76,-413.42 522.38,-707.19 961.16,-707.19z"/>
   <path class="fil4" d="M1907.16 35927.51l1943.72 0c-44.1,122.12 -68,255.03 -68,393.63l0 1400.42c0,131.12 21.21,256.67 60.61,372.93l-1943.68 0c-39.4,-116.25 -60.53,-241.8 -60.53,-372.93l0 -1400.42c0,-138.59 23.83,-271.5 67.89,-393.63z"/>
   <polygon class="fil19" points="13699.28,36539.91 13699.28,38094.48 13184.58,37779.94 12669.86,38094.48 12669.86,36539.91 "/>
   <polygon class="fil9" points="14085.29,37779.94 13501.57,37465.36 13055.9,37779.94 12669.86,36539.91 13699.28,36539.91 "/>
   <path class="fil9" d="M3048.54 32618.51l0 2610.6 15616.83 0c380.51,0 704.34,-219.94 825.67,-527.7 33.86,-84.08 52.04,-174.93 52.04,-270.01l0 -1015.06c0,-100.66 -20.74,-196.61 -58.05,-285.17 -125.84,-299.57 -445.74,-512.65 -819.65,-512.65l-15616.83 0z"/>
   <path class="fil4" d="M10654.05 33131.16l0 1570.24 8836.98 0c33.86,-84.08 52.04,-174.93 52.04,-270.01l0 -1015.06c0,-100.66 -20.74,-196.61 -58.05,-285.17l-8830.97 0z"/>
   <path class="fil11" d="M12961.08 34175.34l5495.61 0c118.99,0 215.38,-96.43 215.38,-215.45l0 -87.28c0,-118.88 -96.39,-215.38 -215.38,-215.38l-5495.61 0c-118.99,0 -215.31,96.5 -215.31,215.38l0 87.28c0,119.02 96.32,215.45 215.31,215.45z"/>
   <path class="fil4" d="M10547.57 32618.51l-7244.91 0 0 2610.78 7244.91 0c599.46,0 1085.4,-485.83 1085.4,-1085.43l0 -439.95c0,-599.35 -485.94,-1085.4 -1085.4,-1085.4z"/>
   <path class="fil4" d="M2876.05 32618.51l1346.22 0 0 391.19 -1346.22 0c-118.81,0 -215.2,-87.61 -215.2,-195.59 0,-108.09 96.39,-195.59 215.2,-195.59z"/>
   <path class="fil4" d="M2823.5 34837.92l1398.78 0 0 391.15 -1398.78 0c-89.76,0 -162.65,-72.74 -162.65,-162.65l0 -65.89c0,-89.8 72.89,-162.61 162.65,-162.61z"/>
   <path class="fil17" d="M3048.65 33010.21l0 1827.86 7117.72 0c156.49,0 303.36,-39.76 432.18,-108.93 286.81,-153.86 482.18,-457.18 482.18,-805.48 0,-252.37 -102.81,-480.51 -267.9,-645.6 -165.13,-165.85 -394.06,-267.86 -646.47,-267.86l-7117.72 0z"/>
   <path class="fil1" d="M3048.65 33250.44l0 1587.63 7117.72 0c156.49,0 303.36,-39.76 432.18,-108.93 79.45,-73.43 128.68,-178.9 128.68,-295.56l0 -132.25c0,-580.69 -470.12,-1050.89 -1050.85,-1050.89l-6627.73 0z"/>
   <path class="fil18" d="M10521.73 33622.75l-7473.19 0 0 -87.97 7395.38 0c27.66,27.7 53.68,57.11 77.81,87.97z"/>
   <path class="fil18" d="M10688.09 33945.97l-7639.52 0 0 -87.97 7608.98 0c11.55,28.68 21.72,58.02 30.54,87.97z"/>
   <path class="fil18" d="M10727.41 34269.18l-7678.84 0 0 -87.94 7677.96 0c0.51,12.86 0.87,25.77 0.87,38.7l0 49.24z"/>
   <path class="fil18" d="M10711.45 34592.4l-7662.88 0 0 -87.94 7678.44 0c-1.46,30.5 -6.81,59.99 -15.56,87.94z"/>
   <path class="fil10" d="M2126.44 29036.51l0 3582.15 17182.59 0c589.37,0 1113.06,-285.13 1438.9,-724.17 221.25,-298.18 352.63,-668.01 352.63,-1067.32 0,-400.19 -131.38,-769.14 -352.63,-1067.32 -52.73,-69.94 -109.73,-136.52 -172.01,-198.69 -324.13,-324.2 -772.57,-524.64 -1266.89,-524.64l-17182.59 0z"/>
   <path class="fil20" d="M10039.36 29759.84l0 2134.64 10708.57 0c221.25,-298.18 352.63,-668.01 352.63,-1067.32 0,-400.19 -131.38,-769.14 -352.63,-1067.32l-10708.57 0z"/>
   <path class="fil20" d="M11345.28 29036.15l-8901.16 0 0 3582.36 8901.16 0c822.57,0 1489.34,-666.77 1489.34,-1489.23l0 -603.8c0,-822.53 -666.77,-1489.34 -1489.34,-1489.34z"/>
   <path class="fil20" d="M1911.94 29036.15l1679.21 0 0 536.63 -1679.21 0c-148.18,0 -268.33,-120.15 -268.33,-268.26 0,-148.22 120.15,-268.37 268.33,-268.37z"/>
   <path class="fil20" d="M1866.75 32081.55l1724.4 0 0 536.59 -1724.4 0c-123.25,0 -223.14,-99.82 -223.14,-223.14l0 -90.38c0,-123.14 99.89,-223.07 223.14,-223.07z"/>
   <path class="fil2" d="M2127.32 29573.1l0 2508.08 8764.13 0c656.75,0 1195.2,-504.67 1249.72,-1147.68 2.55,-34.58 4.23,-70.01 4.23,-106.34 0,-345.67 -139.91,-659.41 -367.21,-886.67 -226.46,-226.39 -540.2,-367.39 -886.74,-367.39l-8764.13 0z"/>
   <path class="fil1" d="M2127.32 29979.38l0 2101.81 8764.13 0c656.75,0 1195.2,-504.67 1249.72,-1147.68 -23.36,-251.46 -134.91,-477.08 -303.43,-646.47 -190.16,-190.16 -452.77,-307.66 -743.23,-307.66l-8967.19 0z"/>
   <polygon class="fil18" points="11783.73,30229.93 2127.06,30229.93 2127.06,30142.02 11783.73,30142.02 "/>
   <polygon class="fil18" points="12112.67,30729.46 2127.06,30729.46 2127.06,30641.48 12112.67,30641.48 "/>
   <path class="fil18" d="M12062.31 31228.92l-9935.24 0 0 -87.94 9964.69 0c-8.82,29.77 -18.62,59.11 -29.45,87.94z"/>
   <path class="fil18" d="M11728.01 31728.34l-9600.94 0 0 -87.97 9686.81 0c-27.26,30.61 -55.9,59.99 -85.86,87.97z"/>
   <polygon class="fil19" points="9288.66,30185.98 9288.66,31894.19 9854.3,31548.56 10419.83,31894.19 10419.83,30185.98 "/>
   <polygon class="fil11" points="8864.57,31548.56 9505.94,31202.97 9995.63,31548.56 10419.83,30185.98 9288.66,30185.98 "/>
   <line class="fil21" x1="10256.16" y1="30079.45" x2="9198.79" y2= "30079.45" />
   <path class="fil13" d="M16522.74 32618.66l1971.3 0c589.4,0 1113.06,-285.13 1438.83,-724.17 221.29,-298.18 352.7,-668.01 352.7,-1067.32 0,-400.19 -131.42,-769.14 -352.7,-1067.32 -52.59,-69.94 -109.66,-136.52 -171.94,-198.69 -324.02,-324.2 -772.6,-524.64 -1266.89,-524.64l-1971.3 0c494.32,0 942.87,200.44 1266.89,524.64 62.28,62.17 119.39,128.76 172.05,198.69 221.21,298.18 352.63,667.14 352.63,1067.32 0,399.31 -131.42,769.14 -352.63,1067.32 -325.88,439.04 -849.54,724.17 -1438.94,724.17z"/>
   <path class="fil13" d="M15202.14 32618.66l850.41 0c589.37,0 1113.24,-285.13 1439.01,-724.17 221.21,-298.18 352.52,-668.01 352.52,-1067.32 0,-400.19 -131.31,-769.14 -352.52,-1067.32 -52.77,-69.94 -109.77,-136.52 -171.94,-198.69 -324.09,-324.2 -772.68,-524.64 -1267.07,-524.64l-850.41 0c494.39,0 942.94,200.44 1267.07,524.64 62.17,62.17 119.17,128.76 171.94,198.69 221.21,298.18 352.52,667.14 352.52,1067.32 0,399.31 -131.31,769.14 -352.52,1067.32 -325.77,439.04 -849.54,724.17 -1439.01,724.17z"/>
   <path class="fil11" d="M18314.31 30827.16c0,399.31 -131.42,769.14 -352.63,1067.32l1971.2 0c221.29,-298.18 352.7,-668.01 352.7,-1067.32 0,-400.19 -131.42,-769.14 -352.7,-1067.32l-1971.2 0c221.21,298.18 352.63,667.14 352.63,1067.32z"/>
   <path class="fil11" d="M16993.66 30827.16c0,399.31 -131.31,769.14 -352.52,1067.32l850.41 0c221.21,-298.18 352.52,-668.01 352.52,-1067.32 0,-400.19 -131.31,-769.14 -352.52,-1067.32l-850.41 0c221.21,298.18 352.52,667.14 352.52,1067.32z"/>
   <path class="fil13" d="M11655.41 32618.66l850.41 0c589.4,0 1113.06,-285.13 1438.83,-724.17 221.32,-298.18 352.7,-668.01 352.7,-1067.32 0,-400.19 -131.38,-769.14 -352.7,-1067.32 -52.59,-69.94 -109.66,-136.52 -171.94,-198.69 -324.02,-324.2 -772.57,-524.64 -1266.89,-524.64l-850.41 0c494.28,0 942.87,200.44 1266.89,524.64 62.28,62.17 119.35,128.76 172.01,198.69 221.21,298.18 352.63,667.14 352.63,1067.32 0,399.31 -131.42,769.14 -352.63,1067.32 -325.84,439.04 -849.5,724.17 -1438.9,724.17z"/>
   <path class="fil11" d="M13446.94 30827.16c0,399.31 -131.42,769.14 -352.63,1067.32l850.34 0c221.32,-298.18 352.7,-668.01 352.7,-1067.32 0,-400.19 -131.38,-769.14 -352.7,-1067.32l-850.34 0c221.21,298.18 352.63,667.14 352.63,1067.32z"/>
   <path class="fil0" d="M7181.13 20941.56l3822.45 0 0 -1640.51 -3822.45 0c-453.03,0 -820.27,367.17 -820.27,820.13 0,453.07 367.24,820.38 820.27,820.38z"/>
   <path class="fil2" d="M11091.52 20941.56l3323.14 0c349.82,0 648.51,-219.03 766.48,-527.41l-885.18 0c-121.47,0 -219.9,-98.51 -219.9,-219.86 0,-121.47 98.43,-219.9 219.9,-219.9l925.88 0c-69.21,-382.95 -404.27,-673.33 -807.19,-673.33l-3323.14 0 0 1640.51z"/>
   <polygon class="fil0" points="11091.52,20941.56 11003.58,20941.56 11003.58,19301.05 11091.52,19301.05 "/>
   <path class="fil0" d="M14295.97 20414.15l885.18 0c34.8,-91 53.83,-189.69 53.83,-292.97 0,-50.04 -4.52,-99.2 -13.12,-146.79l-925.88 0c-121.47,0 -219.9,98.43 -219.9,219.9 0,121.36 98.43,219.86 219.9,219.86z"/>
   <path class="fil0" d="M7147.09 28742.85l3856.49 0 0 -7126.54 -3856.49 0c-502.12,0 -909.16,406.97 -909.16,909.01l0 5308.44c0,502.01 407.04,909.08 909.16,909.08z"/>
   <path class="fil2" d="M11091.52 28742.85l1928.48 0 0 -2765.7c0,-57.98 23.47,-114.61 64.4,-155.5 41,-41 97.52,-64.4 155.5,-64.4l1995.07 0 0 -997.46 -939 0c-121.47,0 -219.9,-98.43 -219.9,-219.9 0,-121.47 98.43,-219.86 219.9,-219.86l939 0 0 -646.73 -939 0c-121.47,0 -219.9,-98.43 -219.9,-219.9 0,-121.39 98.43,-219.9 219.9,-219.9l939 0 0 -646.55 -939 0c-121.47,0 -219.9,-98.51 -219.9,-219.86 0,-121.47 98.43,-219.86 219.9,-219.86l856.82 0c-143.55,-313.31 -459.84,-530.91 -827.01,-530.91l-3234.26 0 0 7126.54zm2368.25 0l866.01 0c502.12,0 909.19,-407.07 909.19,-909.08l0 -1636.75 -1775.2 0 0 2545.84z"/>
   <polygon class="fil0" points="11091.52,28742.85 11003.58,28742.85 11003.58,21616.27 11091.52,21616.27 "/>
   <path class="fil0" d="M14295.97 22586.95l939 0 0 -61.63c0,-134.91 -29.41,-263.01 -82.18,-378.1l-856.82 0c-121.47,0 -219.9,98.4 -219.9,219.86 0,121.36 98.43,219.86 219.9,219.86z"/>
   <path class="fil0" d="M14295.97 23673.29l939 0 0 -439.8 -939 0c-121.47,0 -219.9,98.51 -219.9,219.9 0,121.47 98.43,219.9 219.9,219.9z"/>
   <path class="fil0" d="M14295.97 24759.79l939 0 0 -439.76 -939 0c-121.47,0 -219.9,98.4 -219.9,219.86 0,121.47 98.43,219.9 219.9,219.9z"/>
   <path class="fil0" d="M13020.01 28742.85l439.76 0 0 -2545.84 1775.2 0 0 -439.76 -1995.07 0c-57.98,0 -114.51,23.4 -155.5,64.4 -40.93,40.89 -64.4,97.52 -64.4,155.5l0 2765.7z"/>
   <path class="fil1" d="M13009.29 28243.79l-7178.69 0c-502.12,0 -909.08,-406.97 -909.08,-909.08l0 -5308.37c0,-502.01 406.97,-909.08 909.08,-909.08l7178.69 0c502.12,0 909.16,407.07 909.16,909.08l0 5308.37c0,502.12 -407.04,909.08 -909.16,909.08z"/>
   <path class="fil6" d="M13009.29 28243.79l0 43.99 -7178.69 0c-526.5,0 -953.07,-426.68 -953.07,-953.07l0 -5308.37c0,-526.39 426.57,-953.07 953.07,-953.07l7178.69 0c526.39,0 953.04,426.68 953.14,953.07l0 5308.37c-0.11,526.46 -426.75,953.07 -953.14,953.07l0 -87.97c239.07,0 455.07,-96.72 611.78,-253.39 156.56,-156.63 253.32,-372.67 253.43,-611.71l0 -5308.37c-0.11,-239.03 -96.87,-455.03 -253.43,-611.71 -156.71,-156.63 -372.71,-253.39 -611.78,-253.39l-7178.69 0c-239.03,0 -455.07,96.76 -611.81,253.39 -156.53,156.67 -253.28,372.67 -253.28,611.71l0 5308.37c0,239.03 96.76,455.07 253.28,611.71 156.74,156.67 372.78,253.39 611.81,253.39l7178.69 0 0 43.99z"/>
   <path class="fil1" d="M13098.1 20442.5l-7233.53 0c-452.96,0 -820.27,-367.21 -820.27,-820.27 0,-452.96 367.31,-820.24 820.27,-820.24l7233.53 0c453.07,0 820.34,367.28 820.34,820.24 0,453.07 -367.28,820.27 -820.34,820.27z"/>
   <path class="fil6" d="M13098.1 20442.5l0 43.95 -7233.53 0c-477.26,0 -864.26,-386.88 -864.26,-864.22 0,-477.3 386.99,-864.22 864.26,-864.22l7233.53 0c477.34,0 864.22,386.92 864.33,864.22 -0.11,477.34 -386.99,864.22 -864.33,864.22l0 -87.94c214.51,0 408.39,-86.81 548.91,-227.37 140.56,-140.64 227.37,-334.41 227.48,-548.91 -0.11,-214.51 -86.92,-408.28 -227.48,-548.91 -140.53,-140.56 -334.41,-227.37 -548.91,-227.37l-7233.53 0c-214.43,0 -408.31,86.81 -548.95,227.37 -140.53,140.64 -227.33,334.41 -227.33,548.91 0,214.51 86.81,408.28 227.33,548.91 140.64,140.56 334.52,227.37 548.95,227.37l7233.53 0 0 43.99z"/>
   <path class="fil3" d="M12531.01 19622.23c0,202.81 164.47,367.21 367.28,367.21 202.81,0 367.28,-164.4 367.28,-367.21 0,-202.81 -164.47,-367.21 -367.28,-367.21 -202.81,0 -367.28,164.4 -367.28,367.21z"/>
   <path class="fil4" d="M11067.62 19622.23c0,202.81 164.4,367.21 367.21,367.21 202.81,0 367.21,-164.4 367.21,-367.21 0,-202.81 -164.4,-367.21 -367.21,-367.21 -202.81,0 -367.21,164.4 -367.21,367.21z"/>
   <path class="fil5" d="M9604.15 19622.23c0,202.81 164.4,367.21 367.24,367.21 202.81,0 367.17,-164.4 367.17,-367.21 0,-202.81 -164.36,-367.21 -367.17,-367.21 -202.84,0 -367.24,164.4 -367.24,367.21z"/>
   <path class="fil8" d="M12836.37 22775.11l-6709.99 0c-121.47,0 -219.86,-98.43 -219.86,-219.9 0,-121.36 98.4,-219.86 219.86,-219.86l6709.99 0c121.47,0 219.9,98.51 219.9,219.86 0,121.47 -98.43,219.9 -219.9,219.9z"/>
   <path class="fil8" d="M12836.37 23589.29l-3762.83 0c-121.47,0 -219.86,-98.43 -219.86,-219.86 0,-121.47 98.4,-219.9 219.86,-219.9l3762.83 0c121.47,0 219.9,98.43 219.9,219.9 0,121.43 -98.43,219.86 -219.9,219.86z"/>
   <polygon class="fil4" points="11576.51,26241.69 11576.51,26109.76 12763.26,26109.76 12763.26,27428.47 11444.59,27428.47 11444.59,26109.76 11576.51,26109.76 11576.51,26241.69 11708.44,26241.69 11708.44,27164.59 12499.41,27164.59 12499.41,26373.62 11576.51,26373.62 11576.51,26241.69 11708.44,26241.69 "/>
   <path class="fil5" d="M12631.34 27296.51l-131.93 0 0 -2882.65 -5665.44 2750.72 5797.37 0 0 131.93 -131.93 0 131.93 0 0 131.96 -6371.17 0c-61.3,0 -114.76,-42.68 -128.57,-102.41 -13.74,-59.8 15.82,-121.47 70.96,-148.29l6371.21 -3093.33c40.78,-19.75 89.07,-17.24 127.59,6.89 38.56,24.09 61.92,66.4 61.92,111.88l0 3093.29c0,34.73 -14.07,68.7 -38.67,93.22 -24.56,24.64 -58.49,38.74 -93.26,38.74l0 -131.96z"/>
   <path class="fil9" d="M16141.21 11107.01c18.55,-0.26 37.03,-0.44 55.5,-0.44 41.51,0 82.58,0.8 123.32,2.44l-3.61 87.9c-39.5,-1.6 -79.41,-2.41 -119.72,-2.41 -17.97,0 -35.9,0.11 -53.94,0.47l-1.57 -87.97z"/>
   <path class="fil9" d="M16505.43 11122.5c125.95,13.19 247.78,34.48 365.27,63.16l-20.74 85.5c-113.74,-27.81 -231.71,-48.4 -353.68,-61.23l9.15 -87.43zm543.92 113.38c119.79,38.27 234.73,84.37 344.57,137.57l-38.27 79.16c-106.23,-51.46 -217.2,-95.99 -333.06,-132.91l26.75 -83.82zm508.72 224.27c108.16,62.21 210.9,131.49 308.17,206.96l-53.97 69.46c-94.02,-73.07 -193.44,-140.02 -298,-200.15l43.81 -76.28zm450.84 325.7c92.53,82.4 179.34,170.7 260.24,263.96l-66.4 57.69c-78.54,-90.49 -162.72,-176.1 -252.34,-255.94l58.49 -65.71zm377.3 407.66c75.04,98 144.17,200.62 207.25,306.78l-75.66 44.97c-61.3,-103.39 -128.5,-203.1 -201.42,-298.36l69.83 -53.39zm297.23 468.63c56.89,109.51 107.65,222.16 152.22,337.21l-81.96 31.85c-43.44,-112.14 -93,-221.9 -148.4,-328.54l78.13 -40.53zm214.51 511.56c38.45,117.49 70.52,236.85 96.21,357.22l-86.01 18.4c-25,-117.42 -56.31,-233.79 -93.77,-348.29l83.57 -27.33zm129.99 539.29c19.35,122.52 32,245.56 37.9,368.37l-87.87 4.23c-5.72,-119.53 -18.04,-239.43 -36.92,-358.86l86.88 -13.74zm41.51 553.5c-1.06,124.27 -9.33,247.78 -24.82,369.5l-87.25 -11.08c15.05,-118.22 23.07,-238.27 24.09,-359.22l87.97 0.8zm-54.01 552.59c-23.4,122.34 -54.52,242.42 -93.66,359.04l-83.38 -27.95c37.83,-112.76 68,-228.94 90.67,-347.6l86.37 16.51zm-158.93 533.02c-47.92,114.76 -104.05,225.59 -168.7,331.24l-75 -46.03c62.17,-101.57 116.25,-208.27 162.5,-319.1l81.2 33.89z"/>
   <path class="fil9" d="M18583.95 15838.4c-35.28,48.18 -72.49,95.04 -111.63,140.42l-66.66 -57.4c37.65,-43.62 73.43,-88.67 107.29,-134.91l70.99 51.9z"/>
   <path class="fil9" d="M18352.03 15458.08c-270.63,53.75 -446.36,316.73 -392.64,587.36 53.72,270.63 316.73,446.36 587.36,392.61 270.63,-53.72 446.36,-316.73 392.61,-587.32 -53.83,-270.63 -316.8,-446.4 -587.32,-392.64z"/>
   <path class="fil5" d="M4223.33 23088.74c-58.93,12.94 -117.57,23.94 -175.73,33.16l-13.81 -86.81c56.49,-8.97 113.49,-19.72 170.81,-32.29l18.73 85.93z"/>
   <path class="fil5" d="M3863.27 23145.12c-87.36,8.2 -173.54,12.14 -258.42,12.14 -37.72,0 -75.18,-0.77 -112.39,-2.37l3.68 -87.87c35.97,1.49 72.19,2.3 108.71,2.3 82.14,0 165.6,-3.86 250.22,-11.81l8.2 87.61zm-555.8 -4.41c-124.86,-13.99 -246.61,-36.55 -364.8,-67.17l21.98 -85.17c114.25,29.59 231.85,51.46 352.63,65.02l-9.8 87.32zm-542.75 -120.05c-118.3,-39.65 -232.62,-87.43 -342.75,-142.42l39.25 -78.68c106.56,53.21 217.13,99.38 331.49,137.72l-27.99 83.38zm-505.98 -230.8c-106.96,-62.61 -209.33,-132.11 -307.07,-207.73l53.83 -69.46c94.83,73.25 194.13,140.6 297.63,201.31l-44.39 75.88zm-449.97 -325.59c-92.89,-81.38 -180.76,-168.33 -263.49,-260.17l65.34 -58.86c80.47,89.29 165.96,173.87 256.13,252.95l-57.98 66.07zm-383.39 -401.17c-77.33,-96.14 -149.35,-196.65 -215.56,-300.7l74.13 -47.3c64.58,101.39 134.66,199.27 209.95,292.97l-68.51 55.03zm-310.94 -459.44c-60.75,-107.65 -115.67,-218.41 -164.43,-331.42l80.72 -34.91c47.6,110.21 101.13,218.19 160.32,323.14l-76.6 43.19zm-233.42 -503.39c-43,-116.25 -79.59,-234.48 -109.4,-353.72l85.31 -21.39c29.01,116.11 64.72,231.23 106.6,344.61l-82.51 30.5zm-149.35 -534.81c-23.4,-122.12 -39.58,-244.79 -48.21,-367.21l87.72 -6.27c8.42,118.92 24.2,238.2 46.87,356.93l-86.37 16.55zm-55.58 -552.52l-0.11 -23.65c0,-116.66 7.07,-232.47 21.47,-346.72l87.28 10.97c-13.92,110.57 -20.77,222.71 -20.77,335.75l0.07 22.92 -87.94 0.73zm51.28 -553.76c24.45,-121.98 57.76,-241.62 100.44,-357.91l82.58 30.28c-41.07,111.88 -73.18,227.19 -96.83,344.94l-86.19 -17.31z"/>
   <path class="fil5" d="M899.06 18929.15c25.15,-54.08 52.33,-107.36 81.89,-159.51l76.6 43.26c-28.39,50.11 -54.52,101.24 -78.72,153.28l-79.77 -37.03z"/>
   <path class="fil5" d="M1201.18 19256.59c254.81,-105.87 375.48,-398.26 269.65,-653.03 -105.87,-254.7 -398.26,-375.48 -653.03,-269.57 -254.81,105.8 -375.48,398.26 -269.68,653.07 105.9,254.7 398.26,375.48 653.07,269.54z"/>
   <path class="fil22" d="M9103.2 7104.52c-18.84,-57.51 -35.64,-114.8 -50.58,-171.76l85.06 -22.27c14.5,55.25 30.87,110.82 49.05,166.69l-83.53 27.33z"/>
   <path class="fil22" d="M9011.07 6751.64c-24.23,-124.27 -39.65,-247.05 -46.68,-367.97l87.79 -5.14c6.85,116.91 21.72,235.75 45.3,356.35l-86.41 16.76zm-51.06 -553.65c1.49,-125.69 11.84,-249.09 30.5,-369.65l86.88 13.34c-18,116.66 -28.03,235.9 -29.45,357.37l-87.94 -1.06zm65.34 -551.97c27.7,-121.65 63.85,-240.24 107.47,-355.25l82.22 31.2c-42.2,111.34 -77.15,225.95 -103.97,343.55l-85.72 -19.5zm179.27 -526.54c51.6,-112.65 110.53,-221.47 175.99,-326.21l74.56 46.65c-63.52,101.64 -120.59,207.18 -170.63,316.26l-79.92 -36.7zm279.05 -480.18c71.68,-100.47 149.49,-196.69 232.62,-288.09l65.12 59.11c-80.83,89.03 -156.49,182.4 -226.24,280.03l-71.5 -51.06zm360.86 -421.47c88.05,-86.59 180.91,-168.22 277.85,-244.54l54.45 69.06c-94.46,74.49 -184.88,153.9 -270.63,238.16l-61.66 -62.68zm426.21 -355.11c101.09,-71.25 205.83,-137.03 313.41,-196.83l42.71 76.86c-104.81,58.42 -206.93,122.45 -305.43,191.84l-50.69 -71.87zm477.59 -282.47c111.44,-54.37 225.44,-102.59 341.11,-144.17l29.7 82.76c-112.57,40.45 -223.54,87.43 -332.18,140.45l-38.63 -79.05zm517.35 -201.97c119.21,-35.46 239.58,-63.78 360.54,-84.62l14.94 86.74c-117.42,20.23 -234.48,47.74 -350.4,82.18l-25.07 -84.29zm544.18 -110.35c100.62,-10.93 201.24,-16.58 301.42,-16.58 23.11,0 46.17,0.36 69.1,0.91l-2.19 87.94c-22.34,-0.51 -44.57,-0.87 -66.91,-0.87 -96.87,0 -194.39,5.36 -291.91,16l-9.51 -87.39zm556.02 -4.26c123.87,12.25 246.21,33.46 366.18,64.32l-21.9 85.21c-115.42,-29.7 -233.35,-50.22 -352.88,-61.92l8.6 -87.61z"/>
   <path class="fil22" d="M12910.16 3381.63c56.45,19.61 112.21,41.44 167.02,65.63l-35.39 80.47c-52.66,-23.14 -106.23,-44.17 -160.39,-62.97l28.75 -83.13z"/>
   <path class="fil22" d="M12614.53 3714.98c130.91,242.93 433.79,333.86 676.72,203.14 242.93,-130.83 333.97,-433.79 203.1,-676.68 -130.69,-242.93 -433.61,-333.9 -676.61,-203.17 -242.93,130.76 -333.9,433.79 -203.21,676.72z"/>
   <path class="fil22" d="M35760.2 7578.95l-1918.64 0c-121.43,0 -219.86,-98.43 -219.86,-219.9 0,-121.47 98.43,-219.86 219.86,-219.86l1918.64 0c121.47,0 219.9,98.4 219.9,219.86 0,121.47 -98.43,219.9 -219.9,219.9z"/>
   <path class="fil22" d="M35760.2 8562.45l-1070.57 0c-121.43,0 -219.86,-98.43 -219.86,-219.9 0,-121.47 98.43,-219.9 219.86,-219.9l1070.57 0c121.47,0 219.9,98.43 219.9,219.9 0,121.47 -98.43,219.9 -219.9,219.9z"/>
   <path class="fil22" d="M18641.46 7000.41l-6600.22 0c-121.43,0 -219.86,-98.43 -219.86,-219.9 0,-121.47 98.43,-219.9 219.86,-219.9l6600.22 0c121.47,0 219.9,98.43 219.9,219.9 0,121.47 -98.43,219.9 -219.9,219.9z"/>
   <path class="fil22" d="M18641.46 7948.7l-2387.31 0c-121.39,0 -219.9,-98.51 -219.9,-219.9 0,-121.47 98.51,-219.86 219.9,-219.86l2387.31 0c121.47,0 219.9,98.4 219.9,219.86 0,121.39 -98.43,219.9 -219.9,219.9z"/>
   <path class="fil22" d="M2809.69 25574.23l-2000.97 0c-121.47,0 -219.9,-98.51 -219.9,-219.9 0,-121.43 98.43,-219.86 219.9,-219.86l2000.97 0c121.47,0 219.86,98.43 219.86,219.86 0,121.39 -98.4,219.9 -219.86,219.9z"/>
   <path class="fil22" d="M3744.43 25574.23l-265.09 0c-121.47,0 -219.86,-98.51 -219.86,-219.9 0,-121.43 98.4,-219.86 219.86,-219.86l265.09 0c121.47,0 219.9,98.43 219.9,219.86 0,121.39 -98.43,219.9 -219.9,219.9z"/>
   <path class="fil22" d="M1845.1 26365.34l-1036.38 0c-121.47,0 -219.9,-98.51 -219.9,-219.86 0,-121.47 98.43,-219.9 219.9,-219.9l1036.38 0c121.47,0 219.86,98.43 219.86,219.9 0,121.36 -98.4,219.86 -219.86,219.86z"/>
   <path class="fil22" d="M20848.3 2572.73l0 1239.7 1118.53 1333.11 -4699.18 0c-1420.9,0 -2572.73,-1151.94 -2572.73,-2572.81 0,-1420.82 1151.83,-2572.73 2572.73,-2572.73l1007.92 0c1420.9,0 2572.73,1151.91 2572.73,2572.73z"/>
   <path class="fil2" d="M18865.66 3150.33c0,252.48 204.67,457.26 457.18,457.26 252.52,0 457.29,-204.78 457.29,-457.26 0,-252.52 -204.78,-457.29 -457.29,-457.29 -252.52,0 -457.18,204.78 -457.18,457.29z"/>
   <path class="fil2" d="M17311.53 3150.33c0,252.48 204.67,457.26 457.18,457.26 252.52,0 457.18,-204.78 457.18,-457.26 0,-252.52 -204.67,-457.29 -457.18,-457.29 -252.52,0 -457.18,204.78 -457.18,457.29z"/>
   <path class="fil2" d="M15757.28 3150.33c0,252.48 204.67,457.26 457.18,457.26 252.55,0 457.29,-204.78 457.29,-457.26 0,-252.52 -204.74,-457.29 -457.29,-457.29 -252.52,0 -457.18,204.78 -457.18,457.29z"/>
   <path class="fil22" d="M21744.3 35786.77c0,415.93 337.21,753.14 753.22,753.14 415.97,0 753.25,-337.21 753.25,-753.14 0,-416.11 -337.29,-753.32 -753.25,-753.32 -416,0 -753.22,337.21 -753.22,753.32z"/>
   <path class="fil22" d="M4470.93 5848.46c0,-271.61 220.16,-491.84 491.73,-491.84 271.61,0 491.77,220.23 491.77,491.84 0,271.58 -220.16,491.73 -491.77,491.73 -271.58,0 -491.73,-220.16 -491.73,-491.73z"/>
   <path class="fil22" d="M38720.36 6918.52c0,380.03 308.13,688.2 688.24,688.2 380.07,0 688.24,-308.17 688.24,-688.2 0,-380.14 -308.17,-688.24 -688.24,-688.24 -380.11,0 -688.24,308.09 -688.24,688.24z"/>
   <path class="fil22" d="M34898.49 35329.73c0,-237.98 192.9,-430.95 430.87,-430.95 237.94,0 430.84,192.97 430.84,430.95 0,237.94 -192.9,430.84 -430.84,430.84 -237.98,0 -430.87,-192.9 -430.87,-430.84z"/>
   <path class="fil5" d="M27809.49 34210.73c0,162.61 131.82,294.46 294.35,294.46 162.61,0 294.46,-131.85 294.46,-294.46 0,-162.61 -131.85,-294.46 -294.46,-294.46 -162.54,0 -294.35,131.85 -294.35,294.46z"/>
   <path class="fil5" d="M23207.66 1646.92c0,-162.98 132.11,-295.01 295.01,-295.01 162.9,0 294.97,132.03 294.97,295.01 0,162.9 -132.07,295.01 -294.97,295.01 -162.9,0 -295.01,-132.11 -295.01,-295.01z"/>
   <path class="fil5" d="M7147.53 4273.74c0,-163.34 132.47,-295.85 295.89,-295.85 163.49,0 296.07,132.51 296.07,295.85 0,163.49 -132.58,295.96 -296.07,295.96 -163.41,0 -295.89,-132.47 -295.89,-295.96z"/>
   <path class="fil5" d="M41005.12 19249.12c0,252.88 205.03,457.91 457.91,457.91 252.88,0 457.88,-205.03 457.88,-457.91 0,-252.85 -204.99,-457.88 -457.88,-457.88 -252.88,0 -457.91,205.03 -457.91,457.88z"/>
   <path class="fil5" d="M-0 27406.9c0,140.82 114.07,255 254.89,255 140.82,0 254.89,-114.18 254.89,-255 0,-140.71 -114.07,-254.89 -254.89,-254.89 -140.82,0 -254.89,114.18 -254.89,254.89z"/>
   <path class="fil22" d="M32387.35 1351.91c0,547.71 443.99,991.7 991.7,991.7 547.67,0 991.7,-443.99 991.7,-991.7 0,-547.67 -444.03,-991.67 -991.7,-991.67 -547.71,0 -991.7,443.99 -991.7,991.67z"/>
   <path class="fil22" d="M33241.55 4153.87c0,547.67 443.99,991.67 991.7,991.67 547.71,0 991.67,-443.99 991.67,-991.67 0,-547.78 -443.96,-991.7 -991.67,-991.7 -547.71,0 -991.7,443.92 -991.7,991.7z"/>
   <path class="fil22" d="M29573.29 2933.52c0,547.67 443.99,991.67 991.7,991.67 547.67,0 991.63,-443.99 991.63,-991.67 0,-547.71 -443.96,-991.59 -991.63,-991.59 -547.71,0 -991.7,443.88 -991.7,991.59z"/>
   <path class="fil22" d="M34022.94 4217.98l-854.2 -2801.93c-35.46,-116.18 30.07,-239.07 146.18,-274.49 116.18,-35.35 239.07,30.07 274.49,146.25l854.16 2801.93c35.42,116.11 -29.99,239 -146.18,274.42 -116.15,35.35 -239.03,-30.07 -274.46,-146.18z"/>
   <path class="fil22" d="M30453.07 2744.24l2676.71 -1581.69c104.48,-61.74 239.32,-27.08 301.13,77.52 61.77,104.48 27.11,239.4 -77.48,301.13l-2676.6 1581.65c-104.59,61.77 -239.4,27.11 -301.24,-77.48 -61.74,-104.48 -27.08,-239.32 77.48,-301.13z"/>
   <path class="fil22" d="M34163.86 4362.48l-3668.3 -1220.28c-115.2,-38.34 -177.55,-162.79 -139.21,-278.06 38.23,-115.23 162.79,-177.52 278.03,-139.14l3668.3 1220.13c115.23,38.38 177.59,162.9 139.21,278.14 -38.3,115.23 -162.83,177.48 -278.03,139.21z"/>
  </g>
 </g>
</svg>
