<?xml version="1.0" encoding="UTF-8"?>
<!DOCTYPE svg PUBLIC "-//W3C//DTD SVG 1.1//EN" "http://www.w3.org/Graphics/SVG/1.1/DTD/svg11.dtd">
<!-- Creator: CorelDRAW 2019 (64-Bit Evaluation Version) -->
<svg xmlns="http://www.w3.org/2000/svg" xml:space="preserve" width="71.8743mm" height="61.3478mm" version="1.1" style="shape-rendering:geometricPrecision; text-rendering:geometricPrecision; image-rendering:optimizeQuality; fill-rule:evenodd; clip-rule:evenodd"
viewBox="0 0 5265.69 4494.49"
 xmlns:xlink="http://www.w3.org/1999/xlink">
 <defs>
  <style type="text/css">
   <![CDATA[
    .fil18 {fill:#FEE7A3;fill-rule:nonzero}
    .fil10 {fill:#F5AA34;fill-rule:nonzero}
    .fil2 {fill:#F39923;fill-rule:nonzero}
    .fil3 {fill:#F1947D;fill-rule:nonzero}
    .fil4 {fill:#ED7663;fill-rule:nonzero}
    .fil19 {fill:#FCDE6D;fill-rule:nonzero}
    .fil17 {fill:#F5B248;fill-rule:nonzero}
    .fil1 {fill:#EC891C;fill-rule:nonzero}
    .fil9 {fill:#DA4541;fill-rule:nonzero}
    .fil11 {fill:#DB8845;fill-rule:nonzero}
    .fil0 {fill:#C3E2D9;fill-rule:nonzero}
    .fil7 {fill:#52402D;fill-rule:nonzero}
    .fil5 {fill:#392927;fill-rule:nonzero}
    .fil16 {fill:#685966;fill-rule:nonzero}
    .fil14 {fill:#685764;fill-rule:nonzero}
    .fil13 {fill:#5A4A55;fill-rule:nonzero}
    .fil6 {fill:#2F2727;fill-rule:nonzero}
    .fil12 {fill:#493D45;fill-rule:nonzero}
    .fil8 {fill:#3F3F3E;fill-rule:nonzero}
    .fil15 {fill:#4A414D;fill-rule:nonzero}
   ]]>
  </style>
 </defs>
 <g id="Layer_x0020_1">
  <metadata id="CorelCorpID_0Corel-Layer"/>
  <g id="_1473215951568">
   <path class="fil0" d="M2109.99 1977.25c204.39,-135.14 393.62,-297.83 633.18,-365.58 711.39,-201.11 1275.31,488.68 1659.4,976.16 231.19,293.47 516.45,685.69 409.84,1082.79 -266.17,991.5 -1852.65,884.08 -2607.85,709.41 -549.81,-127.18 -1322.43,-401.65 -1548.75,-976.3 -133.68,-339.41 46.32,-700.89 310.08,-919.84 277.77,-230.58 626.45,-240.93 937.59,-387.65 71.95,-33.92 140.06,-75 206.5,-118.98z"/>
   <path class="fil1" d="M3148.57 2773.35c-13.33,-17.13 -270.84,-635.72 -270.84,-635.72 0,0 -120.29,6.41 -199.33,219.5 -79.06,213.07 -377.59,1144.75 -377.59,1144.75l288.94 180.09 179.44 -74.24 379.38 -834.38z"/>
   <path class="fil2" d="M4532.06 3710.53l-1476.93 0c0,0 -210.85,-426.98 -242.34,-804.03 -21.81,-259.75 0,-733.25 64.94,-768.88 28.1,-15.52 115.35,-43.15 205.26,-71.75 2.66,152.42 150.47,394.52 350.64,455.34 181.25,55 513.94,-240.65 659.58,-379.73 134.24,87.48 266.54,176.65 292.48,220.99 41.2,71.02 146.37,1348.04 146.37,1348.04z"/>
   <path class="fil3" d="M4093.21 2141.5c-145.65,139.08 -478.33,434.72 -659.58,379.73 -200.18,-60.82 -347.98,-302.93 -350.64,-455.34 94.01,-30.53 190.94,-62.02 226.54,-81.91l0.27 0c8.48,-4.59 13.33,-8.71 13.8,-12.1 4.36,-29.8 -48.94,-287.63 -48.94,-287.63l435.46 -101.29c0,0 1.44,86.49 26.9,183.92 22.04,84.56 62.02,177.36 134.97,228.27 58.85,41.17 140.28,93.53 221.22,146.35z"/>
   <path class="fil4" d="M3323.6 1971.87c4.36,-29.8 -48.94,-287.63 -48.94,-287.63l435.46 -101.29c0,0 1.44,86.49 26.9,183.92 -329.53,341.01 -413.88,208.39 -413.42,205z"/>
   <path class="fil4" d="M2938.05 1430.95c-25.06,67.63 -130.67,90.85 -235.93,51.87 -105.26,-39 -170.26,-125.4 -145.21,-193.07 25.06,-67.63 130.68,-90.84 235.93,-51.83 105.24,38.97 170.26,125.4 145.21,193.03z"/>
   <path class="fil5" d="M2999.01 681.87l-242.89 49.97c0,0 -141.73,347.71 -42.43,580.54 73.39,172.14 285.32,-630.51 285.32,-630.51z"/>
   <path class="fil3" d="M3997.98 1233.76c-11.87,61.31 -30.29,120.19 -54.27,175.69 -143.21,333.92 -543.32,549.45 -840.62,491.78 -347.02,-67.36 -444.88,-480.87 -361.28,-911.48 13.8,-70.29 34.41,-137.15 61.31,-199.2 136.4,-317.92 428.18,-514.9 718.24,-458.48 346.75,67.36 560.22,471.07 476.63,901.69z"/>
   <path class="fil6" d="M3811.66 568.07c0,0 98.07,-132.42 204.44,-115.88 106.37,16.55 202.02,143.48 202.02,143.48 0,0 -165.53,-84.21 -255.65,-72.46 0,0 152.66,52.23 180.23,197.51 0,0 -145.29,-143.44 -331.04,-152.65z"/>
   <path class="fil6" d="M3985.23 452.51c-97.99,160.7 -268.42,235.49 -380.61,167.05 -112.22,-68.42 -123.75,-254.18 -25.74,-414.87 98.01,-160.68 219.59,-264.21 380.64,-167.05 172.01,103.8 123.71,254.21 25.7,414.88z"/>
   <path class="fil5" d="M4042.34 1234.99c-16.5,60.32 -40.48,129.38 -64.48,184.88 -66.37,48.71 -193.35,60.09 -193.35,60.09 0,-12.1 -101.79,-564.11 -104.45,-578.64 0,18.15 -483.44,-142.49 -876.94,-110.76 -4.12,-2.9 -8.01,-5.8 -11.87,-8.48 -24,-18.65 -42.16,-39 -54.53,-60.58l0 -0.23c-118.74,-204.26 272.36,-504.03 706.13,-443.68 7.74,0.97 15.25,2.17 23,3.63 15.5,2.66 31.03,5.58 46.52,9.21 174.97,39.99 306.78,115.12 398.85,214.21 172.04,184.4 207.19,451.69 131.12,730.36z"/>
   <path class="fil7" d="M3911.22 504.62c-295.87,-127.69 -933.4,-312.34 -1174.51,216.63 -118.74,-204.26 272.36,-504.03 706.13,-443.68 7.74,0.97 15.25,2.17 23,3.63 15.5,2.66 31.03,5.58 46.52,9.21 174.97,39.99 306.78,115.12 398.85,214.21z"/>
   <path class="fil8" d="M3364.88 1347.3c0,31.58 -11.55,57.19 -25.84,57.19 -14.27,0 -25.85,-25.61 -25.85,-57.19 0,-31.61 11.58,-57.23 25.85,-57.23 14.29,0 25.84,25.62 25.84,57.23z"/>
   <path class="fil8" d="M2890.42 1303.14c0,31.61 -11.58,57.23 -25.84,57.23 -14.3,0 -25.88,-25.61 -25.88,-57.23 0,-31.61 11.58,-57.23 25.88,-57.23 14.26,0 25.84,25.62 25.84,57.23z"/>
   <path class="fil9" d="M3021.64 1306.97c-13.57,35.7 -20.43,73.83 -20.43,111.99 0,22.45 2.37,44.91 7.19,66.87 1.28,5.9 7.14,9.64 13.03,8.36 5.91,-1.29 9.68,-7.14 8.37,-13.07 -4.45,-20.38 -6.67,-41.26 -6.67,-62.16 0,-35.53 6.4,-71.06 19,-104.19 2.16,-5.66 -0.7,-11.98 -6.34,-14.15 -5.67,-2.16 -11.99,0.7 -14.15,6.34z"/>
   <path class="fil5" d="M3335.94 1056.31c8.97,-1.43 18.07,-2.14 27.2,-2.14 41.19,-0.02 82.65,14.42 114.44,40.42 6.25,5.11 15.47,4.18 20.56,-2.08 5.11,-6.26 4.18,-15.47 -2.05,-20.56 -37.31,-30.47 -85.01,-46.98 -132.95,-47.02 -10.62,0 -21.23,0.82 -31.75,2.49 -7.99,1.25 -13.43,8.74 -12.17,16.73 1.26,7.98 8.74,13.41 16.73,12.16z"/>
   <path class="fil5" d="M2822.47 945.84c10.67,-2.26 21.61,-3.36 32.57,-3.36 37.57,-0.04 75.43,13.13 104.27,36.93 6.22,5.11 15.43,4.23 20.58,-1.99 5.12,-6.23 4.24,-15.44 -1.99,-20.59 -34.43,-28.33 -78.56,-43.56 -122.85,-43.59 -12.95,0 -25.91,1.31 -38.63,4.01 -7.89,1.66 -12.95,9.41 -11.28,17.3 1.69,7.89 9.44,12.96 17.34,11.29z"/>
   <path class="fil9" d="M3112.32 1650.68c17.63,3.04 35.49,4.51 53.36,4.51 70.79,0 141.49,-23.25 197.9,-66.35 4.79,-3.69 5.72,-10.56 2.04,-15.39 -3.69,-4.79 -10.56,-5.73 -15.35,-2.04 -52.4,40.06 -118.6,61.87 -184.59,61.84 -16.64,0 -33.28,-1.38 -49.64,-4.18 -5.97,-1.02 -11.64,2.98 -12.67,8.95 -1.02,5.96 2.98,11.63 8.95,12.65z"/>
   <path class="fil3" d="M4140.02 1441.64c13.63,70.83 -64.68,145.44 -174.91,166.64 -110.2,21.19 -210.61,-19.01 -224.24,-89.86 -13.62,-70.82 64.68,-145.4 174.91,-166.64 110.21,-21.19 210.61,19.03 224.23,89.85z"/>
   <path class="fil10" d="M4171.62 2277.08c88.66,-2.37 173.45,36.61 233.95,101.45 65.85,70.58 175.76,202.4 342.42,441.99 308.47,443.44 419.32,669.96 322.92,795.28 -96.4,125.32 -1225.16,94.74 -1225.16,94.74l-101.81 -302.54 567.39 -114.56c0,0 -302.72,-458 -340.61,-646.67 -31.63,-157.58 -3.54,-364.21 200.9,-369.68z"/>
   <path class="fil3" d="M3853.56 3707.6c0,0 -84.56,38.31 -255.63,18.92 -171.35,-19.65 -211.81,-134.5 -211.81,-134.5 0,0 -120.91,30.06 -155.09,-13.57 -15.99,-20.34 -11.64,-40.96 -7.01,-52.33 2.42,-5.82 5.08,-9.45 5.08,-9.45 0,0 -8.23,5.33 -21.31,7.02 -14.29,1.93 -34.18,-0.47 -55.26,-18.42 -38.54,-32.96 -3.85,-87.22 -0.96,-91.85l-0.23 0c-1.96,0.74 -11.17,4.37 -23.04,4.37 -16.7,0 -38.51,-7.03 -53.54,-37.55 -27.39,-55.73 117.28,-131.81 128.91,-137.89 -14.29,4.12 -244.03,72 -267.54,75.12 -23.98,2.92 -71.72,1.96 -41.43,-54.03 30.06,-55.73 275.76,-185.61 474.7,-142.48 198.71,43.39 374.64,286.92 374.64,286.92l109.53 299.73z"/>
   <path class="fil4" d="M3151.33 3413.42l0.23 0c70.76,-78.97 153.15,-128.65 257.33,-164.99 9.7,-3.42 5.82,-17.22 -4.13,-15.29 -108.53,21.58 -212.01,94.04 -276.48,184.65l23.04 -4.37z"/>
   <path class="fil4" d="M3457.37 3355.77c-95.5,40.94 -173.74,89.64 -233.36,170.35 2.42,-5.82 5.08,-9.45 5.08,-9.45 0,0 -8.23,5.33 -21.31,7.02 54.27,-87.22 142.95,-162.1 244,-181.25 7.52,-1.46 13.57,9.71 5.59,13.33z"/>
   <polygon class="fil11" points="214.73,3870.56 5123.22,3870.56 5123.22,3681.97 214.73,3681.97 "/>
   <polygon class="fil12" points="513.44,3681.97 3483.4,3681.97 3483.4,3533.49 513.44,3533.49 "/>
   <polygon class="fil13" points="2539.43,3681.97 3483.4,3681.97 3483.4,3533.49 2539.43,3533.49 "/>
   <polygon class="fil12" points="2738.76,3637.9 2974.31,3637.9 2974.31,3577.55 2738.76,3577.55 "/>
   <polygon class="fil12" points="3148.57,3637.9 3384.13,3637.9 3384.13,3577.55 3148.57,3577.55 "/>
   <path class="fil12" d="M2698.17 3607.73c0,14.82 -12.71,26.84 -28.42,26.84 -15.73,0 -28.45,-12.02 -28.45,-26.84 0,-14.83 12.72,-26.84 28.45,-26.84 15.71,0 28.42,12.02 28.42,26.84z"/>
   <polygon class="fil14" points="2539.43,3515.83 2458.41,3578.17 298.56,3578.17 -0,2323.24 78.33,2239.47 2291.54,2239.47 "/>
   <polygon class="fil13" points="2458.41,3578.17 298.56,3578.17 -0,2323.24 2201.31,2323.24 "/>
   <path class="fil14" d="M1620.64 2932.57c0,69.7 -152.47,126.22 -340.55,126.22 -188.09,0 -340.58,-56.52 -340.58,-126.22 0,-69.74 152.48,-126.25 340.58,-126.25 188.07,0 340.55,56.51 340.55,126.25z"/>
   <path class="fil15" d="M4697.85 1471.88c-18.01,53.13 -109.23,70.21 -203.76,38.16 -94.54,-32.05 -156.58,-101.08 -138.56,-154.18 18.01,-53.12 109.23,-70.2 203.76,-38.16 94.53,32.04 156.58,101.08 138.56,154.17z"/>
   <polygon class="fil16" points="4980.73,926.84 4896.44,1109.41 4884.48,1135.31 4861.59,1184.84 4849.6,1210.74 4826.71,1260.28 4814.71,1286.16 4791.82,1335.69 4780.09,1361.69 4757.2,1411.21 4745.22,1437.12 4724.72,1481.36 4328.99,1347.21 4338.55,1299.25 4344.25,1271.24 4354.9,1217.53 4360.63,1189.52 4371.25,1135.83 4376.98,1107.83 4387.62,1054.12 4393.32,1026.1 4404.23,972.51 4409.7,944.4 4449.38,746.69 "/>
   <polygon class="fil15" points="4896.44,1109.41 4884.48,1135.31 4404.23,972.51 4409.7,944.4 "/>
   <polygon class="fil15" points="4393.32,1026.1 4861.59,1184.84 4849.6,1210.74 4387.62,1054.12 "/>
   <polygon class="fil15" points="4826.71,1260.28 4814.71,1286.16 4371.25,1135.83 4376.98,1107.83 "/>
   <polygon class="fil15" points="4791.82,1335.69 4780.09,1361.69 4354.9,1217.53 4360.63,1189.52 "/>
   <polygon class="fil15" points="4757.2,1411.21 4745.22,1437.12 4338.55,1299.25 4344.25,1271.24 "/>
   <path class="fil17" d="M5241.02 750.11c-73.12,215.73 -280.75,298.03 -496.3,255.23 -9.03,-1.61 -18.28,-3.6 -27.4,-5.82 -17.4,-4.45 -34.88,-9.47 -52.37,-15.41 -25.28,-8.57 -49.82,-18.64 -72.74,-29.91 -8.77,-4.13 -17.11,-8.69 -25.47,-13.28 -180.06,-99.41 -273.56,-280.9 -203.24,-488.29 82.13,-242.34 345.17,-372.19 587.5,-290.02 242.34,82.16 372.19,345.18 290.02,587.51z"/>
   <path class="fil18" d="M5044.48 691.63c-25.12,75.82 -129.62,153.24 -245.26,182.1l-54.5 131.61c-9.03,-1.61 -18.28,-3.6 -27.4,-5.82l61.99 -149.42 6.99 -1.7c107.61,-24.88 209.62,-97.62 232.01,-165.38 9.53,-29.03 4.26,-55.55 -15.47,-78.79 -14.04,-16.11 -30.97,-24.48 -52.4,-25.62 -78.09,-3.79 -178.85,90.88 -179.7,91.76l-20.59 19.5 -2.63 -28.25c-0.18,-1.22 -12.6,-128.45 -72.69,-164.82 -19.8,-11.93 -42.36,-12.32 -69.41,-1.14 -22.96,9.38 -37.58,25.09 -45.09,47.25 -28.59,86.87 62.71,239.68 63.65,241.17l2.78 4.71 -34.56 165.41c-8.77,-4.13 -17.11,-8.69 -25.47,-13.28l30.82 -147.48c-16.17,-27.87 -93.21,-168.59 -63.42,-259.12 9.91,-30.08 30.32,-51.66 60.69,-64.03 35.18,-14.56 66.87,-13.72 94.33,3.16 53.66,32.16 74.74,116.66 82.19,159.9 35.58,-29.53 112.54,-85.75 180.56,-82.16 28.82,1.61 53.06,13.34 71.75,35.39 26.09,30.35 33.22,66.78 20.82,105.06z"/>
   <path class="fil19" d="M4491.88 329.01c21.9,-34.04 51.96,-62.02 86.35,-83.33 69.17,-42.87 206.14,-107.02 369.53,-42.69 183.68,72.3 -50.56,7.77 -226.93,53.3 -158.63,40.94 -298.8,181.32 -228.95,72.72z"/>
  </g>
 </g>
</svg>
